<?xml version="1.0" encoding="utf-8"?>
<!-- Generator: Adobe Illustrator 24.0.0, SVG Export Plug-In . SVG Version: 6.00 Build 0)  -->
<svg version="1.1" xmlns="http://www.w3.org/2000/svg" xmlns:xlink="http://www.w3.org/1999/xlink" x="0px" y="0px"
	 viewBox="0 0 768 1040" style="enable-background:new 0 0 768 1040;" xml:space="preserve">
<style type="text/css">
	.st0{fill:#FFFFFF;}
	.st1{fill:#7BA9FF;}
	.st2{opacity:0.4;}
</style>
<g id="Capa_1">
	<g>
		<rect width="768" height="1039"/>
	</g>
</g>
<g id="Capa_2">
	<g>
		<g>
			<path class="st0" d="M44.12,75.93h40.35v15.21H65.54V239.2h18.93v14.9H65.54v56.18h18.93v15.21H44.12V75.93z"/>
			<path class="st0" d="M126.68,324.87h-21.42V75.93h40.35v15.21h-18.93V239.2h18.93v14.9h-18.93V324.87z"/>
			<path class="st0" d="M203.35,253.48h-15.52v71.39h-21.42V103.25c0-22.35,12.73-28.25,28.87-28.25c15.21,0,29.49,7.14,29.49,28.25
				v221.62h-21.42V253.48z M195.59,88.66c-6.52,0-7.76,5.59-7.76,8.38v141.54h15.52V97.04C203.35,94.24,202.11,88.66,195.59,88.66z"
				/>
			<path class="st0" d="M279.08,326.73c-16.14,0-28.87-5.59-28.87-28.25V103.56c0-22.66,12.73-28.56,28.87-28.56
				c15.21,0,29.49,6.83,29.49,28.25v113.91h-21.42V97.04c0-2.79-1.24-8.38-7.76-8.38c-6.52,0-7.76,5.59-7.76,8.38v207.65
				c0,1.86,0.62,8.38,7.45,8.38c5.9,0,8.07-4.97,8.07-8.38V254.1h21.42v44.08C308.57,319.9,294.29,326.73,279.08,326.73z"/>
			<path class="st0" d="M334.02,75.93h40.35v15.21h-18.93V239.2h18.93v14.9h-18.93v56.18h18.93v15.21h-40.35V75.93z"/>
			<path class="st0" d="M424.03,326.73c-16.14,0-28.87-5.59-28.87-28.25V103.56c0-22.66,12.73-28.56,28.87-28.56
				c15.21,0,29.49,6.83,29.49,28.25v113.91H432.1V97.04c0-2.79-1.24-8.38-7.76-8.38c-6.52,0-7.76,5.59-7.76,8.38v207.65
				c0,1.86,0.62,8.38,7.45,8.38c5.9,0,8.07-4.97,8.07-8.38V254.1h21.42v44.08C453.52,319.9,439.24,326.73,424.03,326.73z"/>
		</g>
		<g>
			<rect x="44.36" y="368.46" class="st1" width="202" height="2"/>
		</g>
		<g>
			<path class="st0" d="M287.35,747.41c1.24,1.04,1.87,2.47,1.87,4.29c0,1.82-0.62,3.25-1.87,4.29c-1.24,1.04-2.95,1.56-5.12,1.56
				h-4.14v5.07h-2.39v-16.76h6.53C284.4,745.85,286.11,746.37,287.35,747.41z M285.63,754.48c0.8-0.65,1.2-1.58,1.2-2.79
				s-0.4-2.14-1.2-2.79c-0.8-0.65-1.95-0.97-3.47-0.97h-4.07v7.52h4.07C283.68,755.45,284.83,755.13,285.63,754.48z"/>
			<path class="st0" d="M309.04,758.42h-8.9l-1.84,4.19h-2.47l7.59-16.76h2.37l7.61,16.76h-2.51L309.04,758.42z M308.2,756.5
				l-3.61-8.21l-3.61,8.21H308.2z"/>
			<path class="st0" d="M333.55,762.61l-3.61-5.15c-0.45,0.03-0.8,0.05-1.05,0.05h-4.14v5.1h-2.39v-16.76h6.53
				c2.17,0,3.88,0.52,5.12,1.56c1.24,1.04,1.87,2.47,1.87,4.29c0,1.29-0.32,2.39-0.96,3.3c-0.64,0.91-1.55,1.57-2.73,1.99l3.97,5.63
				H333.55z M332.28,754.49c0.8-0.65,1.2-1.59,1.2-2.8s-0.4-2.14-1.2-2.79c-0.8-0.65-1.95-0.97-3.47-0.97h-4.07v7.54h4.07
				C330.33,755.47,331.49,755.15,332.28,754.49z"/>
			<path class="st0" d="M349.3,747.93h-5.75v-2.08h13.86v2.08h-5.75v14.67h-2.37V747.93z"/>
			<path class="st0" d="M366.49,745.85h2.39v16.76h-2.39V745.85z"/>
			<path class="st0" d="M383.33,761.69c-1.35-0.74-2.41-1.76-3.17-3.06c-0.77-1.3-1.15-2.76-1.15-4.39s0.38-3.09,1.15-4.39
				c0.77-1.3,1.83-2.32,3.18-3.06c1.35-0.74,2.87-1.11,4.55-1.11c1.31,0,2.51,0.22,3.59,0.66c1.08,0.44,2.01,1.09,2.78,1.95
				l-1.56,1.51c-1.26-1.32-2.83-1.99-4.72-1.99c-1.24,0-2.37,0.28-3.38,0.84c-1,0.56-1.79,1.33-2.36,2.31
				c-0.57,0.98-0.85,2.08-0.85,3.29s0.28,2.31,0.85,3.29c0.57,0.98,1.35,1.75,2.36,2.31c1.01,0.56,2.13,0.84,3.38,0.84
				c1.87,0,3.44-0.67,4.72-2.01l1.56,1.51c-0.77,0.86-1.7,1.52-2.79,1.96c-1.09,0.45-2.3,0.67-3.6,0.67
				C386.19,762.8,384.68,762.43,383.33,761.69z"/>
			<path class="st0" d="M404.14,745.85h2.39v16.76h-2.39V745.85z"/>
			<path class="st0" d="M429.68,747.41c1.24,1.04,1.87,2.47,1.87,4.29c0,1.82-0.62,3.25-1.87,4.29c-1.24,1.04-2.95,1.56-5.12,1.56
				h-4.14v5.07h-2.39v-16.76h6.53C426.73,745.85,428.44,746.37,429.68,747.41z M427.96,754.48c0.8-0.65,1.2-1.58,1.2-2.79
				s-0.4-2.14-1.2-2.79c-0.8-0.65-1.95-0.97-3.47-0.97h-4.07v7.52h4.07C426.01,755.45,427.16,755.13,427.96,754.48z"/>
			<path class="st0" d="M451.37,758.42h-8.9l-1.84,4.19h-2.47l7.59-16.76h2.37l7.61,16.76h-2.51L451.37,758.42z M450.53,756.5
				l-3.61-8.21l-3.61,8.21H450.53z"/>
			<path class="st0" d="M467.4,761.69c-1.35-0.74-2.41-1.76-3.17-3.06c-0.77-1.3-1.15-2.76-1.15-4.39s0.38-3.09,1.15-4.39
				c0.77-1.3,1.83-2.32,3.18-3.06c1.35-0.74,2.87-1.11,4.55-1.11c1.31,0,2.51,0.22,3.59,0.66s2.01,1.09,2.78,1.95l-1.56,1.51
				c-1.26-1.32-2.83-1.99-4.72-1.99c-1.24,0-2.37,0.28-3.38,0.84c-1,0.56-1.79,1.33-2.36,2.31c-0.57,0.98-0.85,2.08-0.85,3.29
				s0.28,2.31,0.85,3.29c0.57,0.98,1.35,1.75,2.36,2.31c1.01,0.56,2.13,0.84,3.38,0.84c1.87,0,3.44-0.67,4.72-2.01l1.56,1.51
				c-0.77,0.86-1.7,1.52-2.79,1.96c-1.09,0.45-2.3,0.67-3.6,0.67C470.26,762.8,468.75,762.43,467.4,761.69z"/>
			<path class="st0" d="M488.21,745.85h2.39v16.76h-2.39V745.85z"/>
			<path class="st0" d="M505.09,761.69c-1.36-0.74-2.42-1.77-3.2-3.08c-0.77-1.31-1.16-2.77-1.16-4.38c0-1.61,0.39-3.07,1.16-4.38
				c0.77-1.31,1.84-2.33,3.2-3.08c1.36-0.74,2.88-1.11,4.57-1.11c1.68,0,3.19,0.37,4.55,1.11c1.36,0.74,2.42,1.76,3.18,3.06
				c0.76,1.3,1.15,2.77,1.15,4.39s-0.38,3.09-1.15,4.39c-0.77,1.3-1.83,2.32-3.18,3.06s-2.87,1.11-4.55,1.11
				C507.97,762.8,506.44,762.43,505.09,761.69z M512.97,759.83c0.98-0.56,1.76-1.33,2.32-2.31c0.57-0.98,0.85-2.08,0.85-3.29
				s-0.28-2.31-0.85-3.29c-0.57-0.98-1.34-1.75-2.32-2.31c-0.98-0.56-2.09-0.84-3.32-0.84c-1.23,0-2.34,0.28-3.34,0.84
				c-1,0.56-1.78,1.33-2.35,2.31c-0.57,0.98-0.85,2.08-0.85,3.29s0.28,2.31,0.85,3.29c0.57,0.98,1.35,1.75,2.35,2.31
				c1,0.56,2.11,0.84,3.34,0.84C510.89,760.67,511.99,760.39,512.97,759.83z M511.12,741.37h2.92l-4.02,3.11h-2.16L511.12,741.37z"
				/>
			<path class="st0" d="M543.07,745.85v16.76h-1.96l-10.05-12.5v12.5h-2.39v-16.76h1.96l10.05,12.5v-12.5H543.07z"/>
			<path class="st0" d="M553.63,752.61c-0.32-0.31-0.48-0.71-0.48-1.18c0-0.46,0.16-0.85,0.48-1.16c0.32-0.31,0.7-0.47,1.15-0.47
				s0.82,0.15,1.12,0.45c0.3,0.3,0.46,0.7,0.46,1.17s-0.16,0.87-0.47,1.18c-0.31,0.31-0.68,0.47-1.11,0.47
				C554.33,753.08,553.95,752.92,553.63,752.61z M553.63,762.28c-0.32-0.31-0.48-0.71-0.48-1.18c0-0.46,0.16-0.85,0.48-1.16
				s0.7-0.47,1.15-0.47s0.82,0.15,1.12,0.45c0.3,0.3,0.46,0.69,0.46,1.17c0,0.48-0.16,0.87-0.47,1.18
				c-0.31,0.31-0.68,0.47-1.11,0.47C554.33,762.75,553.95,762.59,553.63,762.28z"/>
			<path class="st1" d="M289.67,794.41c1.26,0.6,2.26,1.47,2.98,2.59c0.72,1.13,1.08,2.42,1.08,3.88c0,1.53-0.38,2.88-1.13,4.04
				c-0.76,1.16-1.79,2.06-3.1,2.7c-1.31,0.64-2.78,0.96-4.4,0.96c-3.27,0-5.8-1.05-7.57-3.17s-2.66-5.11-2.66-8.98
				c0-2.72,0.48-5.03,1.44-6.95c0.96-1.92,2.31-3.37,4.04-4.35c1.73-0.99,3.74-1.48,6.04-1.48c1.18,0,2.3,0.12,3.34,0.37
				c1.04,0.24,1.95,0.6,2.72,1.06l-1.32,2.72c-1.16-0.77-2.72-1.15-4.67-1.15c-2.53,0-4.51,0.78-5.95,2.35s-2.16,3.85-2.16,6.84
				c0,0.37,0.01,0.66,0.04,0.87c0.7-1.04,1.65-1.84,2.87-2.39s2.59-0.82,4.13-0.82C286.97,793.51,288.4,793.81,289.67,794.41z
				 M288.85,804.48c1-0.86,1.5-2.01,1.5-3.45c0-1.44-0.5-2.58-1.51-3.43c-1.01-0.85-2.36-1.27-4.06-1.27
				c-1.09,0-2.06,0.21-2.91,0.63s-1.51,0.99-1.98,1.71c-0.48,0.72-0.71,1.52-0.71,2.4c0,0.86,0.23,1.64,0.68,2.35
				c0.45,0.71,1.11,1.28,1.98,1.71c0.87,0.43,1.91,0.64,3.12,0.64C286.55,805.77,287.85,805.33,288.85,804.48z"/>
			<path class="st1" d="M323.25,783.93v2.37l-9.85,22.01h-3.69l9.64-21.34h-11.14v4.35h-3.34v-7.38H323.25z"/>
			<path class="st1" d="M337,795.18c-1.05-1.23-1.57-2.83-1.57-4.8c0-1.97,0.52-3.57,1.57-4.8c1.04-1.23,2.41-1.85,4.11-1.85
				c1.69,0,3.06,0.61,4.09,1.83s1.55,2.82,1.55,4.82c0,2-0.52,3.6-1.55,4.82c-1.03,1.22-2.4,1.83-4.09,1.83
				C339.42,797.03,338.05,796.41,337,795.18z M343.62,793.8c0.6-0.82,0.91-1.97,0.91-3.43s-0.3-2.6-0.91-3.43
				c-0.6-0.82-1.44-1.24-2.51-1.24c-1.05,0-1.88,0.42-2.49,1.25c-0.61,0.84-0.92,1.97-0.92,3.41c0,1.44,0.31,2.58,0.92,3.41
				c0.61,0.84,1.44,1.25,2.49,1.25C342.18,795.04,343.02,794.63,343.62,793.8z M355.81,783.93h2.68l-16.64,24.37h-2.68
				L355.81,783.93z M352.45,806.69c-1.03-1.22-1.55-2.83-1.55-4.82c0-2,0.52-3.6,1.55-4.82c1.03-1.22,2.4-1.83,4.09-1.83
				s3.06,0.61,4.11,1.85c1.04,1.23,1.57,2.83,1.57,4.8c0,1.97-0.52,3.58-1.57,4.81c-1.05,1.23-2.42,1.85-4.11,1.85
				S353.48,807.91,352.45,806.69z M359.03,805.28c0.61-0.84,0.92-1.97,0.92-3.41c0-1.44-0.31-2.58-0.92-3.41
				c-0.62-0.84-1.44-1.25-2.49-1.25c-1.07,0-1.9,0.41-2.51,1.23c-0.6,0.82-0.91,1.97-0.91,3.43c0,1.46,0.3,2.61,0.91,3.43
				c0.6,0.82,1.44,1.24,2.51,1.24C357.58,806.53,358.41,806.11,359.03,805.28z"/>
			<path class="st1" d="M395.32,783.93h10.27c2.58,0,4.86,0.51,6.86,1.53c2,1.02,3.55,2.45,4.65,4.3c1.1,1.85,1.65,3.96,1.65,6.35
				s-0.55,4.51-1.65,6.35c-1.1,1.85-2.65,3.28-4.65,4.3c-2,1.02-4.28,1.53-6.86,1.53h-10.27V783.93z M405.39,805.28
				c1.97,0,3.71-0.38,5.21-1.15c1.5-0.77,2.65-1.84,3.46-3.22c0.81-1.38,1.22-2.98,1.22-4.79s-0.41-3.41-1.22-4.79
				c-0.81-1.38-1.97-2.46-3.46-3.22c-1.5-0.77-3.23-1.15-5.21-1.15h-6.58v18.31H405.39z"/>
			<path class="st1" d="M451.17,805.28v3.03h-17.69v-24.37h17.2v3.03h-13.72v7.49h12.22v2.96h-12.22v7.87H451.17z"/>
			<path class="st1" d="M466.21,783.93h3.48v21.34h13.2v3.03h-16.68V783.93z"/>
			<path class="st1" d="M519.36,806.96c-1.96-1.08-3.5-2.56-4.61-4.46c-1.11-1.89-1.67-4.02-1.67-6.39c0-2.37,0.56-4.5,1.67-6.39
				c1.12-1.89,2.66-3.38,4.63-4.46c1.97-1.08,4.18-1.62,6.62-1.62c1.9,0,3.64,0.32,5.22,0.96c1.58,0.64,2.93,1.58,4.04,2.84
				l-2.26,2.19c-1.83-1.92-4.12-2.89-6.86-2.89c-1.81,0-3.45,0.41-4.91,1.22c-1.46,0.81-2.61,1.93-3.43,3.36
				c-0.82,1.43-1.24,3.02-1.24,4.79c0,1.76,0.41,3.36,1.24,4.79c0.82,1.43,1.97,2.55,3.43,3.36c1.46,0.81,3.1,1.22,4.91,1.22
				c2.72,0,5-0.97,6.86-2.92l2.26,2.19c-1.11,1.25-2.47,2.21-4.06,2.86c-1.59,0.65-3.34,0.97-5.24,0.97
				C523.52,808.58,521.32,808.04,519.36,806.96z"/>
			<path class="st1" d="M564.57,802.21h-12.95l-2.68,6.09h-3.59l11.04-24.37h3.45l11.07,24.37h-3.66L564.57,802.21z M563.35,799.43
				l-5.26-11.94l-5.26,11.94H563.35z"/>
			<path class="st1" d="M600.89,786.2c1.81,1.51,2.72,3.59,2.72,6.23c0,2.65-0.91,4.72-2.72,6.23c-1.81,1.51-4.3,2.26-7.45,2.26
				h-6.02v7.38h-3.48v-24.37h9.5C596.59,783.93,599.08,784.69,600.89,786.2z M598.38,796.49c1.16-0.94,1.74-2.29,1.74-4.06
				c0-1.76-0.58-3.12-1.74-4.06c-1.16-0.94-2.84-1.41-5.05-1.41h-5.92v10.93h5.92C595.54,797.89,597.22,797.43,598.38,796.49z"/>
			<path class="st1" d="M618.12,783.93h3.48v24.37h-3.48V783.93z"/>
			<path class="st1" d="M643.16,786.96h-8.36v-3.03h20.16v3.03h-8.36v21.34h-3.45V786.96z"/>
			<path class="st1" d="M682.46,802.21h-12.95l-2.68,6.09h-3.59l11.04-24.37h3.45l11.07,24.37h-3.66L682.46,802.21z M681.25,799.43
				l-5.26-11.94l-5.26,11.94H681.25z"/>
			<path class="st1" d="M701.82,783.93h3.48v21.34h13.2v3.03h-16.68V783.93z"/>
		</g>
		<g>
			<path class="st0" d="M288.55,914.83h-8.9l-1.84,4.19h-2.47l7.59-16.76h2.37l7.61,16.76h-2.51L288.55,914.83z M287.71,912.92
				l-3.61-8.21l-3.61,8.21H287.71z"/>
			<path class="st0" d="M301.86,902.27h7.06c1.77,0,3.34,0.35,4.72,1.06c1.37,0.7,2.44,1.69,3.2,2.96s1.14,2.73,1.14,4.37
				c0,1.64-0.38,3.1-1.14,4.37c-0.76,1.27-1.82,2.25-3.2,2.96c-1.37,0.7-2.94,1.05-4.72,1.05h-7.06V902.27z M308.77,916.94
				c1.36,0,2.55-0.26,3.58-0.79c1.03-0.53,1.82-1.26,2.38-2.21c0.56-0.95,0.84-2.05,0.84-3.29c0-1.25-0.28-2.34-0.84-3.29
				c-0.56-0.95-1.35-1.69-2.38-2.21c-1.03-0.53-2.22-0.79-3.58-0.79h-4.52v12.59H308.77z"/>
			<path class="st0" d="M345.35,920.56c-0.54,0.64-1.17,1.12-1.89,1.46s-1.49,0.5-2.32,0.5c-1.05,0-2.04-0.25-2.96-0.76
				c-0.92-0.5-1.97-1.36-3.15-2.57c-1.58-0.08-3-0.5-4.27-1.27c-1.27-0.77-2.26-1.78-2.97-3.05c-0.71-1.27-1.06-2.68-1.06-4.22
				c0-1.61,0.39-3.07,1.16-4.38c0.77-1.31,1.84-2.33,3.2-3.08c1.36-0.74,2.88-1.11,4.57-1.11c1.68,0,3.19,0.37,4.55,1.11
				c1.36,0.74,2.42,1.76,3.18,3.06c0.76,1.3,1.15,2.76,1.15,4.39c0,1.37-0.28,2.63-0.82,3.78c-0.55,1.15-1.32,2.12-2.32,2.9
				c-1,0.78-2.14,1.32-3.43,1.63c0.56,0.59,1.1,1.02,1.62,1.28c0.52,0.26,1.05,0.4,1.59,0.4c1.18,0,2.2-0.48,3.06-1.44
				L345.35,920.56z M329.97,913.94c0.57,0.98,1.35,1.75,2.35,2.31c1,0.56,2.11,0.84,3.34,0.84c1.21,0,2.31-0.28,3.3-0.84
				c0.99-0.56,1.77-1.33,2.33-2.31c0.57-0.98,0.85-2.08,0.85-3.29c0-1.21-0.28-2.31-0.85-3.29c-0.57-0.98-1.35-1.75-2.33-2.31
				c-0.99-0.56-2.09-0.84-3.3-0.84c-1.23,0-2.34,0.28-3.34,0.84c-1,0.56-1.78,1.33-2.35,2.31c-0.57,0.98-0.85,2.08-0.85,3.29
				C329.12,911.86,329.4,912.95,329.97,913.94z"/>
			<path class="st0" d="M356.39,917.3c-1.24-1.28-1.87-3.11-1.87-5.51v-9.53h2.39v9.43c0,3.59,1.57,5.39,4.71,5.39
				c1.53,0,2.71-0.44,3.52-1.33c0.81-0.89,1.22-2.24,1.22-4.06v-9.43h2.32v9.53c0,2.41-0.62,4.25-1.87,5.52
				c-1.24,1.27-2.98,1.9-5.22,1.9C359.37,919.21,357.63,918.58,356.39,917.3z"/>
			<path class="st0" d="M380.06,902.27h2.39v16.76h-2.39V902.27z"/>
			<path class="st0" d="M395.17,918.63c-1.17-0.39-2.09-0.9-2.76-1.52l0.89-1.87c0.64,0.58,1.46,1.04,2.45,1.4
				c1,0.36,2.02,0.54,3.08,0.54c1.39,0,2.43-0.24,3.11-0.71c0.69-0.47,1.03-1.1,1.03-1.88c0-0.57-0.19-1.04-0.56-1.4
				c-0.37-0.36-0.84-0.64-1.39-0.83c-0.55-0.19-1.33-0.41-2.33-0.65c-1.26-0.3-2.28-0.61-3.05-0.91s-1.44-0.77-1.99-1.4
				c-0.55-0.63-0.82-1.48-0.82-2.55c0-0.89,0.23-1.7,0.71-2.42c0.47-0.72,1.18-1.29,2.14-1.72c0.96-0.43,2.15-0.65,3.57-0.65
				c0.99,0,1.96,0.13,2.92,0.38c0.96,0.25,1.78,0.62,2.47,1.1l-0.79,1.92c-0.7-0.45-1.45-0.79-2.25-1.02
				c-0.8-0.23-1.58-0.35-2.35-0.35c-1.36,0-2.37,0.25-3.05,0.74c-0.68,0.49-1.02,1.13-1.02,1.91c0,0.58,0.19,1.04,0.57,1.4
				c0.38,0.36,0.86,0.64,1.42,0.84c0.57,0.2,1.34,0.41,2.31,0.64c1.26,0.3,2.27,0.61,3.04,0.91c0.77,0.31,1.42,0.77,1.98,1.39
				c0.55,0.62,0.82,1.46,0.82,2.51c0,0.88-0.24,1.68-0.72,2.4c-0.48,0.73-1.2,1.3-2.18,1.72c-0.97,0.42-2.17,0.64-3.59,0.64
				C397.56,919.21,396.35,919.02,395.17,918.63z"/>
			<path class="st0" d="M415.27,902.27h2.39v16.76h-2.39V902.27z"/>
			<path class="st0" d="M432.11,918.1c-1.35-0.74-2.41-1.76-3.17-3.06c-0.77-1.3-1.15-2.76-1.15-4.39c0-1.63,0.38-3.09,1.15-4.39
				c0.77-1.3,1.83-2.32,3.18-3.06c1.35-0.74,2.87-1.11,4.55-1.11c1.31,0,2.51,0.22,3.59,0.66c1.09,0.44,2.01,1.09,2.78,1.95
				l-1.56,1.51c-1.26-1.32-2.83-1.98-4.72-1.98c-1.24,0-2.37,0.28-3.37,0.84c-1,0.56-1.79,1.33-2.36,2.31
				c-0.57,0.98-0.85,2.08-0.85,3.29c0,1.21,0.28,2.31,0.85,3.29c0.57,0.98,1.35,1.75,2.36,2.31c1.01,0.56,2.13,0.84,3.37,0.84
				c1.87,0,3.44-0.67,4.72-2.01l1.56,1.51c-0.77,0.86-1.7,1.52-2.79,1.96c-1.09,0.45-2.3,0.67-3.6,0.67
				C434.97,919.21,433.46,918.84,432.11,918.1z"/>
			<path class="st0" d="M452.92,902.27h2.39v16.76h-2.39V902.27z"/>
			<path class="st0" d="M469.8,918.1c-1.36-0.74-2.42-1.77-3.2-3.08c-0.77-1.31-1.16-2.77-1.16-4.38c0-1.61,0.39-3.07,1.16-4.38
				c0.77-1.31,1.84-2.33,3.2-3.08c1.36-0.74,2.88-1.11,4.57-1.11c1.68,0,3.19,0.37,4.55,1.11c1.36,0.74,2.42,1.76,3.18,3.06
				c0.76,1.3,1.15,2.76,1.15,4.39c0,1.63-0.38,3.09-1.15,4.39c-0.77,1.3-1.83,2.32-3.18,3.06c-1.36,0.74-2.87,1.11-4.55,1.11
				C472.68,919.21,471.16,918.84,469.8,918.1z M477.69,916.25c0.98-0.56,1.76-1.33,2.32-2.31c0.57-0.98,0.85-2.08,0.85-3.29
				c0-1.21-0.28-2.31-0.85-3.29c-0.57-0.98-1.34-1.75-2.32-2.31c-0.98-0.56-2.09-0.84-3.32-0.84c-1.23,0-2.34,0.28-3.34,0.84
				c-1,0.56-1.78,1.33-2.35,2.31c-0.57,0.98-0.85,2.08-0.85,3.29c0,1.21,0.28,2.31,0.85,3.29c0.57,0.98,1.35,1.75,2.35,2.31
				c1,0.56,2.11,0.84,3.34,0.84C475.6,917.09,476.7,916.8,477.69,916.25z M475.83,897.79h2.92l-4.02,3.11h-2.16L475.83,897.79z"/>
			<path class="st0" d="M507.79,902.27v16.76h-1.96l-10.05-12.5v12.5h-2.39v-16.76h1.96l10.05,12.5v-12.5H507.79z"/>
			<path class="st0" d="M518.34,909.03c-0.32-0.31-0.48-0.71-0.48-1.19c0-0.46,0.16-0.85,0.48-1.16c0.32-0.31,0.7-0.47,1.15-0.47
				s0.82,0.15,1.12,0.46c0.3,0.3,0.46,0.7,0.46,1.17c0,0.48-0.16,0.88-0.47,1.19c-0.31,0.31-0.68,0.47-1.11,0.47
				C519.05,909.5,518.66,909.34,518.34,909.03z M518.34,918.7c-0.32-0.31-0.48-0.71-0.48-1.18c0-0.46,0.16-0.85,0.48-1.16
				c0.32-0.31,0.7-0.47,1.15-0.47s0.82,0.15,1.12,0.46c0.3,0.31,0.46,0.7,0.46,1.17c0,0.48-0.16,0.87-0.47,1.18
				c-0.31,0.31-0.68,0.47-1.11,0.47C519.05,919.17,518.66,919.01,518.34,918.7z"/>
			<path class="st1" d="M294.16,961.69v3.03h-17.51v-2.37l9.92-9.57c1.21-1.16,2.02-2.16,2.44-3.01c0.42-0.85,0.63-1.7,0.63-2.56
				c0-1.28-0.45-2.27-1.34-2.98c-0.89-0.71-2.18-1.06-3.85-1.06c-2.69,0-4.77,0.88-6.23,2.65l-2.37-2.06
				c0.95-1.16,2.2-2.07,3.74-2.72c1.54-0.65,3.27-0.98,5.17-0.98c2.55,0,4.58,0.61,6.09,1.83c1.51,1.22,2.26,2.87,2.26,4.96
				c0,1.3-0.28,2.53-0.84,3.69c-0.56,1.16-1.61,2.48-3.17,3.97l-7.45,7.17H294.16z"/>
			<path class="st1" d="M311.13,963.52c-1.5-0.99-2.68-2.42-3.53-4.3c-0.86-1.88-1.29-4.11-1.29-6.68s0.43-4.81,1.29-6.69
				c0.86-1.88,2.04-3.31,3.53-4.3c1.5-0.99,3.21-1.48,5.14-1.48c1.9,0,3.6,0.49,5.1,1.48c1.5,0.99,2.67,2.42,3.53,4.3
				c0.86,1.88,1.29,4.11,1.29,6.69s-0.43,4.8-1.29,6.68c-0.86,1.88-2.04,3.31-3.53,4.3c-1.5,0.99-3.2,1.48-5.1,1.48
				C314.34,965,312.63,964.51,311.13,963.52z M320.95,959.5c1.17-1.6,1.76-3.92,1.76-6.96c0-3.04-0.59-5.36-1.76-6.97
				c-1.17-1.6-2.73-2.4-4.68-2.4c-1.97,0-3.55,0.8-4.72,2.4c-1.17,1.6-1.76,3.92-1.76,6.97c0,3.04,0.59,5.36,1.76,6.96
				c1.17,1.6,2.75,2.4,4.72,2.4C318.22,961.9,319.78,961.1,320.95,959.5z"/>
			<path class="st1" d="M346.39,940.35v24.37h-3.45v-21.34h-5.5v-3.03H346.39z"/>
			<path class="st1" d="M375.76,952.03c1.64,1.31,2.45,3.11,2.45,5.38c0,1.44-0.34,2.73-1.03,3.88c-0.68,1.15-1.72,2.05-3.1,2.72
				c-1.38,0.66-3.08,0.99-5.1,0.99c-1.72,0-3.38-0.26-4.98-0.78c-1.6-0.52-2.92-1.25-3.97-2.18l1.6-2.75c0.84,0.79,1.9,1.42,3.2,1.9
				c1.3,0.48,2.67,0.71,4.11,0.71c1.83,0,3.26-0.39,4.27-1.17c1.01-0.78,1.52-1.84,1.52-3.18c0-1.46-0.56-2.57-1.67-3.33
				c-1.11-0.76-3.02-1.13-5.71-1.13h-5.54l1.29-12.74h13.75v3.03h-10.83l-0.66,6.68h2.72C371.56,950.06,374.12,950.72,375.76,952.03
				z"/>
		</g>
		<g>
			<path class="st0" d="M274.75,609.55c-1.17-0.39-2.09-0.9-2.76-1.52l0.89-1.87c0.64,0.57,1.46,1.04,2.45,1.4
				c1,0.36,2.02,0.54,3.08,0.54c1.39,0,2.43-0.24,3.11-0.71c0.69-0.47,1.03-1.1,1.03-1.88c0-0.57-0.19-1.04-0.56-1.4
				s-0.84-0.63-1.39-0.83c-0.55-0.19-1.33-0.41-2.33-0.65c-1.26-0.3-2.28-0.61-3.05-0.91c-0.77-0.3-1.44-0.77-1.99-1.4
				c-0.55-0.63-0.82-1.48-0.82-2.55c0-0.89,0.23-1.7,0.71-2.42c0.47-0.72,1.18-1.29,2.14-1.72c0.96-0.43,2.15-0.65,3.57-0.65
				c0.99,0,1.96,0.13,2.92,0.38c0.96,0.26,1.78,0.62,2.47,1.1l-0.79,1.92c-0.7-0.45-1.45-0.79-2.25-1.02
				c-0.8-0.23-1.58-0.35-2.35-0.35c-1.36,0-2.37,0.25-3.05,0.74c-0.68,0.49-1.02,1.13-1.02,1.91c0,0.57,0.19,1.04,0.57,1.4
				c0.38,0.36,0.86,0.64,1.42,0.84c0.57,0.2,1.34,0.41,2.31,0.63c1.26,0.3,2.27,0.61,3.04,0.91s1.42,0.77,1.98,1.39
				c0.55,0.62,0.82,1.46,0.82,2.51c0,0.88-0.24,1.68-0.72,2.41c-0.48,0.73-1.2,1.3-2.18,1.72c-0.97,0.42-2.17,0.63-3.59,0.63
				C277.14,610.14,275.93,609.94,274.75,609.55z"/>
			<path class="st0" d="M307.01,607.87v2.08h-12.16v-16.76h11.82v2.08h-9.43v5.15h8.4v2.04h-8.4v5.41H307.01z"/>
			<path class="st0" d="M317.35,593.19h7.06c1.77,0,3.34,0.35,4.72,1.05s2.44,1.69,3.2,2.96c0.76,1.27,1.14,2.73,1.14,4.37
				c0,1.64-0.38,3.1-1.14,4.37c-0.76,1.27-1.82,2.25-3.2,2.96c-1.37,0.7-2.94,1.05-4.72,1.05h-7.06V593.19z M324.27,607.87
				c1.36,0,2.55-0.26,3.58-0.79c1.03-0.53,1.82-1.26,2.38-2.21c0.56-0.95,0.84-2.05,0.84-3.29c0-1.24-0.28-2.34-0.84-3.29
				c-0.56-0.95-1.35-1.69-2.38-2.21c-1.03-0.53-2.22-0.79-3.58-0.79h-4.52v12.59H324.27z"/>
			<path class="st0" d="M355.74,607.87v2.08h-12.16v-16.76h11.82v2.08h-9.43v5.15h8.4v2.04h-8.4v5.41H355.74z"/>
			<path class="st0" d="M364.98,599.95c-0.32-0.31-0.48-0.71-0.48-1.18c0-0.46,0.16-0.85,0.48-1.16c0.32-0.31,0.7-0.47,1.15-0.47
				s0.82,0.15,1.12,0.45c0.3,0.3,0.46,0.69,0.46,1.17c0,0.48-0.16,0.87-0.47,1.18c-0.31,0.31-0.68,0.47-1.11,0.47
				C365.69,600.42,365.3,600.27,364.98,599.95z M364.98,609.62c-0.32-0.31-0.48-0.71-0.48-1.19c0-0.46,0.16-0.85,0.48-1.16
				c0.32-0.31,0.7-0.47,1.15-0.47s0.82,0.15,1.12,0.45c0.3,0.3,0.46,0.69,0.46,1.17c0,0.48-0.16,0.87-0.47,1.19
				c-0.31,0.31-0.68,0.47-1.11,0.47C365.69,610.09,365.3,609.94,364.98,609.62z"/>
			<path class="st1" d="M291.62,633.54c1.81,1.51,2.72,3.59,2.72,6.23c0,2.65-0.91,4.72-2.72,6.23c-1.81,1.51-4.3,2.26-7.45,2.26
				h-6.02v7.38h-3.48v-24.37h9.5C287.32,631.27,289.81,632.03,291.62,633.54z M289.11,643.83c1.16-0.94,1.74-2.29,1.74-4.06
				c0-1.76-0.58-3.12-1.74-4.06c-1.16-0.94-2.84-1.41-5.05-1.41h-5.92v10.93h5.92C286.27,645.24,287.95,644.77,289.11,643.83z"/>
			<path class="st1" d="M313.55,654.31c-1.97-1.08-3.52-2.57-4.65-4.47c-1.13-1.9-1.69-4.03-1.69-6.37s0.56-4.47,1.69-6.37
				c1.13-1.9,2.67-3.39,4.65-4.47c1.97-1.08,4.19-1.62,6.65-1.62c2.44,0,4.64,0.54,6.62,1.62c1.97,1.08,3.52,2.57,4.63,4.46
				c1.11,1.89,1.67,4.02,1.67,6.39c0,2.37-0.56,4.5-1.67,6.39c-1.11,1.89-2.66,3.38-4.63,4.46c-1.97,1.08-4.18,1.62-6.62,1.62
				C317.74,655.93,315.53,655.39,313.55,654.31z M325.03,651.61c1.43-0.81,2.55-1.93,3.38-3.36c0.82-1.43,1.24-3.02,1.24-4.79
				c0-1.76-0.41-3.36-1.24-4.79c-0.82-1.43-1.95-2.55-3.38-3.36c-1.43-0.81-3.04-1.22-4.82-1.22c-1.79,0-3.41,0.41-4.86,1.22
				c-1.45,0.81-2.59,1.93-3.41,3.36c-0.82,1.43-1.24,3.02-1.24,4.79c0,1.76,0.41,3.36,1.24,4.79c0.82,1.43,1.96,2.55,3.41,3.36
				c1.45,0.81,3.07,1.22,4.86,1.22C321.99,652.83,323.6,652.42,325.03,651.61z"/>
			<path class="st1" d="M364.14,655.65l-5.26-7.49c-0.65,0.05-1.16,0.07-1.53,0.07h-6.02v7.42h-3.48v-24.37h9.5
				c3.16,0,5.64,0.75,7.45,2.26c1.81,1.51,2.72,3.59,2.72,6.23c0,1.88-0.46,3.48-1.39,4.8c-0.93,1.32-2.25,2.29-3.97,2.89l5.78,8.18
				H364.14z M362.3,643.84c1.16-0.95,1.74-2.31,1.74-4.07c0-1.76-0.58-3.12-1.74-4.06c-1.16-0.94-2.84-1.41-5.05-1.41h-5.92v10.97
				h5.92C359.45,645.27,361.14,644.79,362.3,643.84z"/>
			<path class="st1" d="M387.05,634.3h-8.36v-3.03h20.16v3.03h-8.36v21.34h-3.45V634.3z"/>
			<path class="st1" d="M414.11,653.14c-1.81-1.86-2.72-4.53-2.72-8.01v-13.86h3.48v13.72c0,5.22,2.29,7.83,6.86,7.83
				c2.23,0,3.94-0.64,5.12-1.93c1.18-1.29,1.78-3.26,1.78-5.9v-13.72H432v13.86c0,3.51-0.91,6.18-2.72,8.03
				c-1.81,1.85-4.34,2.77-7.59,2.77C418.45,655.93,415.92,655,414.11,653.14z"/>
			<path class="st1" d="M465.43,643.32h3.34v9.51c-1.21,1-2.61,1.76-4.21,2.3s-3.27,0.8-5.01,0.8c-2.46,0-4.68-0.54-6.65-1.62
				c-1.97-1.08-3.52-2.56-4.65-4.46c-1.13-1.89-1.69-4.02-1.69-6.39c0-2.37,0.56-4.5,1.69-6.41c1.13-1.9,2.68-3.39,4.67-4.46
				c1.98-1.07,4.22-1.6,6.7-1.6c1.95,0,3.72,0.32,5.31,0.96c1.59,0.64,2.94,1.57,4.06,2.8l-2.16,2.16
				c-1.95-1.88-4.31-2.82-7.07-2.82c-1.86,0-3.52,0.4-5,1.2c-1.47,0.8-2.63,1.91-3.46,3.34c-0.84,1.43-1.25,3.03-1.25,4.82
				c0,1.76,0.42,3.36,1.25,4.79c0.84,1.43,1.99,2.55,3.46,3.36c1.47,0.81,3.13,1.22,4.96,1.22c2.18,0,4.09-0.52,5.71-1.57V643.32z"
				/>
			<path class="st1" d="M500.35,649.55H487.4l-2.68,6.09h-3.59l11.04-24.37h3.45l11.07,24.37h-3.66L500.35,649.55z M499.13,646.77
				l-5.26-11.94l-5.26,11.94H499.13z"/>
			<path class="st1" d="M519.71,631.27h3.48v21.34h13.2v3.03h-16.68V631.27z"/>
		</g>
		<g class="st2">
			<path class="st0" d="M56.17,430.04v1.64H43.46v-17.98h12.33v1.64H45.36v6.39h9.3v1.62h-9.3v6.68H56.17z"/>
			<path class="st0" d="M83.36,413.71v17.98H81.8L70.24,417.1v14.59h-1.9v-17.98h1.57l11.58,14.59v-14.59H83.36z"/>
			<path class="st0" d="M109.63,430.04v1.64H96.92v-17.98h12.33v1.64H98.82v6.39h9.3v1.62h-9.3v6.68H109.63z"/>
			<path class="st0" d="M134.08,431.68l-4.11-5.78c-0.46,0.05-0.94,0.08-1.44,0.08h-4.83v5.7h-1.9v-17.98h6.73
				c2.29,0,4.09,0.55,5.39,1.64s1.95,2.6,1.95,4.52c0,1.4-0.35,2.59-1.07,3.56c-0.71,0.97-1.73,1.67-3.04,2.09l4.39,6.16H134.08z
				 M132.56,423.18c0.94-0.79,1.41-1.89,1.41-3.31c0-1.45-0.47-2.57-1.41-3.35c-0.94-0.78-2.3-1.17-4.08-1.17h-4.78v9.01h4.78
				C130.26,424.36,131.62,423.97,132.56,423.18z"/>
			<path class="st0" d="M160.73,422.69h1.82v6.86c-0.84,0.74-1.83,1.3-2.98,1.7c-1.15,0.39-2.35,0.59-3.62,0.59
				c-1.8,0-3.41-0.39-4.85-1.18c-1.44-0.79-2.57-1.88-3.39-3.27c-0.82-1.4-1.23-2.96-1.23-4.69c0-1.73,0.41-3.29,1.23-4.68
				c0.82-1.4,1.95-2.49,3.39-3.27c1.44-0.79,3.06-1.18,4.88-1.18c1.37,0,2.63,0.22,3.77,0.65c1.15,0.44,2.11,1.08,2.9,1.94
				l-1.18,1.21c-1.42-1.4-3.23-2.11-5.42-2.11c-1.45,0-2.77,0.32-3.94,0.96c-1.17,0.64-2.09,1.53-2.76,2.67s-1,2.41-1,3.81
				c0,1.4,0.33,2.67,1,3.8s1.58,2.02,2.75,2.67c1.16,0.65,2.47,0.98,3.93,0.98c1.85,0,3.41-0.46,4.7-1.39V422.69z"/>
			<path class="st0" d="M178.42,409.06h2.44l-4.16,3.18h-1.8L178.42,409.06z M175.63,413.71h1.9v17.98h-1.9V413.71z"/>
			<path class="st0" d="M202.36,426.88h-10.01l-2.16,4.8h-1.98l8.22-17.98h1.87l8.22,17.98h-2L202.36,426.88z M201.66,425.34
				l-4.31-9.66l-4.31,9.66H201.66z"/>
			<path class="st0" d="M244.34,430.04v1.64h-12.71v-17.98h12.32v1.64h-10.42v6.39h9.29v1.62h-9.29v6.68H244.34z"/>
			<path class="st0" d="M270.94,413.71h1.9v17.98h-1.9V413.71z"/>
			<path class="st0" d="M301.42,413.71v17.98h-1.57L288.3,417.1v14.59h-1.9v-17.98h1.57l11.58,14.59v-14.59H301.42z"/>
			<path class="st0" d="M327.64,422.69h1.82v6.86c-0.84,0.74-1.83,1.3-2.98,1.7c-1.15,0.39-2.35,0.59-3.62,0.59
				c-1.8,0-3.41-0.39-4.85-1.18c-1.44-0.79-2.57-1.88-3.39-3.27c-0.82-1.4-1.23-2.96-1.23-4.69c0-1.73,0.41-3.29,1.23-4.68
				c0.82-1.4,1.95-2.49,3.39-3.27c1.44-0.79,3.06-1.18,4.88-1.18c1.37,0,2.63,0.22,3.77,0.65c1.15,0.44,2.11,1.08,2.9,1.94
				l-1.18,1.21c-1.42-1.4-3.23-2.11-5.42-2.11c-1.45,0-2.77,0.32-3.94,0.96c-1.17,0.64-2.09,1.53-2.76,2.67
				c-0.67,1.14-1,2.41-1,3.81c0,1.4,0.33,2.67,1,3.8c0.67,1.13,1.58,2.02,2.75,2.67c1.16,0.65,2.47,0.98,3.93,0.98
				c1.85,0,3.41-0.46,4.7-1.39V422.69z"/>
			<path class="st0" d="M355.25,430.04v1.64h-12.71v-17.98h12.32v1.64h-10.42v6.39h9.29v1.62h-9.29v6.68H355.25z"/>
			<path class="st0" d="M382.44,413.71v17.98h-1.57l-11.55-14.59v14.59h-1.9v-17.98h1.57l11.58,14.59v-14.59H382.44z"/>
			<path class="st0" d="M396,413.71h1.9v17.98H396V413.71z"/>
			<path class="st0" d="M424.17,430.04v1.64h-12.71v-17.98h12.32v1.64h-10.42v6.39h9.29v1.62h-9.29v6.68H424.17z"/>
			<path class="st0" d="M448.62,431.68l-4.11-5.78c-0.46,0.05-0.94,0.08-1.44,0.08h-4.83v5.7h-1.9v-17.98h6.73
				c2.29,0,4.09,0.55,5.39,1.64s1.95,2.6,1.95,4.52c0,1.4-0.36,2.59-1.07,3.56c-0.71,0.97-1.73,1.67-3.04,2.09l4.39,6.16H448.62z
				 M447.1,423.18c0.94-0.79,1.41-1.89,1.41-3.31c0-1.45-0.47-2.57-1.41-3.35c-0.94-0.78-2.3-1.17-4.08-1.17h-4.78v9.01h4.78
				C444.8,424.36,446.16,423.97,447.1,423.18z"/>
			<path class="st0" d="M465.41,409.06h2.44l-4.16,3.18h-1.8L465.41,409.06z M462.61,413.71h1.9v17.98h-1.9V413.71z"/>
			<path class="st0" d="M489.34,426.88h-10.01l-2.16,4.8h-1.98l8.22-17.98h1.87l8.22,17.98h-2L489.34,426.88z M488.65,425.34
				l-4.31-9.66l-4.31,9.66H488.65z"/>
		</g>
	</g>
</g>
</svg>
