<?xml version="1.0" encoding="utf-8"?>
<!-- Generator: Adobe Illustrator 24.0.0, SVG Export Plug-In . SVG Version: 6.00 Build 0)  -->
<svg version="1.1" xmlns="http://www.w3.org/2000/svg" xmlns:xlink="http://www.w3.org/1999/xlink" x="0px" y="0px"
	 viewBox="0 0 768 1040" style="enable-background:new 0 0 768 1040;" xml:space="preserve">
<style type="text/css">
	.st0{display:none;}
	.st1{display:inline;}
	.st2{fill:#FFFFFF;}
	.st3{fill:#7BA9FF;}
	.st4{opacity:0.4;}
</style>
<g id="Capa_1">
	<g>
		<rect width="768" height="1039"/>
	</g>
</g>
<g id="Capa_2" class="st0">
	<g class="st1">
		<g>
			<path class="st2" d="M44.12,75.93h40.35v15.21H65.54V239.2h18.93v14.9H65.54v56.18h18.93v15.21H44.12V75.93z"/>
			<path class="st2" d="M126.68,324.87h-21.42V75.93h40.35v15.21h-18.93V239.2h18.93v14.9h-18.93V324.87z"/>
			<path class="st2" d="M203.35,253.48h-15.52v71.39h-21.42V103.25c0-22.35,12.73-28.25,28.87-28.25c15.21,0,29.49,7.14,29.49,28.25
				v221.62h-21.42V253.48z M195.59,88.66c-6.52,0-7.76,5.59-7.76,8.38v141.54h15.52V97.04C203.35,94.24,202.11,88.66,195.59,88.66z"
				/>
			<path class="st2" d="M279.08,326.73c-16.14,0-28.87-5.59-28.87-28.25V103.56c0-22.66,12.73-28.56,28.87-28.56
				c15.21,0,29.49,6.83,29.49,28.25v113.91h-21.42V97.04c0-2.79-1.24-8.38-7.76-8.38c-6.52,0-7.76,5.59-7.76,8.38v207.65
				c0,1.86,0.62,8.38,7.45,8.38c5.9,0,8.07-4.97,8.07-8.38V254.1h21.42v44.08C308.57,319.9,294.29,326.73,279.08,326.73z"/>
			<path class="st2" d="M334.02,75.93h40.35v15.21h-18.93V239.2h18.93v14.9h-18.93v56.18h18.93v15.21h-40.35V75.93z"/>
			<path class="st2" d="M424.03,326.73c-16.14,0-28.87-5.59-28.87-28.25V103.56c0-22.66,12.73-28.56,28.87-28.56
				c15.21,0,29.49,6.83,29.49,28.25v113.91H432.1V97.04c0-2.79-1.24-8.38-7.76-8.38c-6.52,0-7.76,5.59-7.76,8.38v207.65
				c0,1.86,0.62,8.38,7.45,8.38c5.9,0,8.07-4.97,8.07-8.38V254.1h21.42v44.08C453.52,319.9,439.24,326.73,424.03,326.73z"/>
		</g>
		<g>
			<rect x="44.36" y="368.46" class="st3" width="202" height="2"/>
		</g>
		<g>
			<path class="st2" d="M287.35,747.41c1.24,1.04,1.87,2.47,1.87,4.29c0,1.82-0.62,3.25-1.87,4.29c-1.24,1.04-2.95,1.56-5.12,1.56
				h-4.14v5.07h-2.39v-16.76h6.53C284.4,745.85,286.11,746.37,287.35,747.41z M285.63,754.48c0.8-0.65,1.2-1.58,1.2-2.79
				s-0.4-2.14-1.2-2.79c-0.8-0.65-1.95-0.97-3.47-0.97h-4.07v7.52h4.07C283.68,755.45,284.83,755.13,285.63,754.48z"/>
			<path class="st2" d="M309.04,758.42h-8.9l-1.84,4.19h-2.47l7.59-16.76h2.37l7.61,16.76h-2.51L309.04,758.42z M308.2,756.5
				l-3.61-8.21l-3.61,8.21H308.2z"/>
			<path class="st2" d="M333.55,762.61l-3.61-5.15c-0.45,0.03-0.8,0.05-1.05,0.05h-4.14v5.1h-2.39v-16.76h6.53
				c2.17,0,3.88,0.52,5.12,1.56c1.24,1.04,1.87,2.47,1.87,4.29c0,1.29-0.32,2.39-0.96,3.3c-0.64,0.91-1.55,1.57-2.73,1.99l3.97,5.63
				H333.55z M332.28,754.49c0.8-0.65,1.2-1.59,1.2-2.8s-0.4-2.14-1.2-2.79c-0.8-0.65-1.95-0.97-3.47-0.97h-4.07v7.54h4.07
				C330.33,755.47,331.49,755.15,332.28,754.49z"/>
			<path class="st2" d="M349.3,747.93h-5.75v-2.08h13.86v2.08h-5.75v14.67h-2.37V747.93z"/>
			<path class="st2" d="M366.49,745.85h2.39v16.76h-2.39V745.85z"/>
			<path class="st2" d="M383.33,761.69c-1.35-0.74-2.41-1.76-3.17-3.06c-0.77-1.3-1.15-2.76-1.15-4.39s0.38-3.09,1.15-4.39
				c0.77-1.3,1.83-2.32,3.18-3.06c1.35-0.74,2.87-1.11,4.55-1.11c1.31,0,2.51,0.22,3.59,0.66c1.08,0.44,2.01,1.09,2.78,1.95
				l-1.56,1.51c-1.26-1.32-2.83-1.99-4.72-1.99c-1.24,0-2.37,0.28-3.38,0.84c-1,0.56-1.79,1.33-2.36,2.31
				c-0.57,0.98-0.85,2.08-0.85,3.29s0.28,2.31,0.85,3.29c0.57,0.98,1.35,1.75,2.36,2.31c1.01,0.56,2.13,0.84,3.38,0.84
				c1.87,0,3.44-0.67,4.72-2.01l1.56,1.51c-0.77,0.86-1.7,1.52-2.79,1.96c-1.09,0.45-2.3,0.67-3.6,0.67
				C386.19,762.8,384.68,762.43,383.33,761.69z"/>
			<path class="st2" d="M404.14,745.85h2.39v16.76h-2.39V745.85z"/>
			<path class="st2" d="M429.68,747.41c1.24,1.04,1.87,2.47,1.87,4.29c0,1.82-0.62,3.25-1.87,4.29c-1.24,1.04-2.95,1.56-5.12,1.56
				h-4.14v5.07h-2.39v-16.76h6.53C426.73,745.85,428.44,746.37,429.68,747.41z M427.96,754.48c0.8-0.65,1.2-1.58,1.2-2.79
				s-0.4-2.14-1.2-2.79c-0.8-0.65-1.95-0.97-3.47-0.97h-4.07v7.52h4.07C426.01,755.45,427.16,755.13,427.96,754.48z"/>
			<path class="st2" d="M451.37,758.42h-8.9l-1.84,4.19h-2.47l7.59-16.76h2.37l7.61,16.76h-2.51L451.37,758.42z M450.53,756.5
				l-3.61-8.21l-3.61,8.21H450.53z"/>
			<path class="st2" d="M467.4,761.69c-1.35-0.74-2.41-1.76-3.17-3.06c-0.77-1.3-1.15-2.76-1.15-4.39s0.38-3.09,1.15-4.39
				c0.77-1.3,1.83-2.32,3.18-3.06c1.35-0.74,2.87-1.11,4.55-1.11c1.31,0,2.51,0.22,3.59,0.66s2.01,1.09,2.78,1.95l-1.56,1.51
				c-1.26-1.32-2.83-1.99-4.72-1.99c-1.24,0-2.37,0.28-3.38,0.84c-1,0.56-1.79,1.33-2.36,2.31c-0.57,0.98-0.85,2.08-0.85,3.29
				s0.28,2.31,0.85,3.29c0.57,0.98,1.35,1.75,2.36,2.31c1.01,0.56,2.13,0.84,3.38,0.84c1.87,0,3.44-0.67,4.72-2.01l1.56,1.51
				c-0.77,0.86-1.7,1.52-2.79,1.96c-1.09,0.45-2.3,0.67-3.6,0.67C470.26,762.8,468.75,762.43,467.4,761.69z"/>
			<path class="st2" d="M488.21,745.85h2.39v16.76h-2.39V745.85z"/>
			<path class="st2" d="M505.09,761.69c-1.36-0.74-2.42-1.77-3.2-3.08c-0.77-1.31-1.16-2.77-1.16-4.38c0-1.61,0.39-3.07,1.16-4.38
				c0.77-1.31,1.84-2.33,3.2-3.08c1.36-0.74,2.88-1.11,4.57-1.11c1.68,0,3.19,0.37,4.55,1.11c1.36,0.74,2.42,1.76,3.18,3.06
				c0.76,1.3,1.15,2.77,1.15,4.39s-0.38,3.09-1.15,4.39c-0.77,1.3-1.83,2.32-3.18,3.06s-2.87,1.11-4.55,1.11
				C507.97,762.8,506.44,762.43,505.09,761.69z M512.97,759.83c0.98-0.56,1.76-1.33,2.32-2.31c0.57-0.98,0.85-2.08,0.85-3.29
				s-0.28-2.31-0.85-3.29c-0.57-0.98-1.34-1.75-2.32-2.31c-0.98-0.56-2.09-0.84-3.32-0.84c-1.23,0-2.34,0.28-3.34,0.84
				c-1,0.56-1.78,1.33-2.35,2.31c-0.57,0.98-0.85,2.08-0.85,3.29s0.28,2.31,0.85,3.29c0.57,0.98,1.35,1.75,2.35,2.31
				c1,0.56,2.11,0.84,3.34,0.84C510.89,760.67,511.99,760.39,512.97,759.83z M511.12,741.37h2.92l-4.02,3.11h-2.16L511.12,741.37z"
				/>
			<path class="st2" d="M543.07,745.85v16.76h-1.96l-10.05-12.5v12.5h-2.39v-16.76h1.96l10.05,12.5v-12.5H543.07z"/>
			<path class="st2" d="M553.63,752.61c-0.32-0.31-0.48-0.71-0.48-1.18c0-0.46,0.16-0.85,0.48-1.16c0.32-0.31,0.7-0.47,1.15-0.47
				s0.82,0.15,1.12,0.45c0.3,0.3,0.46,0.7,0.46,1.17s-0.16,0.87-0.47,1.18c-0.31,0.31-0.68,0.47-1.11,0.47
				C554.33,753.08,553.95,752.92,553.63,752.61z M553.63,762.28c-0.32-0.31-0.48-0.71-0.48-1.18c0-0.46,0.16-0.85,0.48-1.16
				s0.7-0.47,1.15-0.47s0.82,0.15,1.12,0.45c0.3,0.3,0.46,0.69,0.46,1.17c0,0.48-0.16,0.87-0.47,1.18
				c-0.31,0.31-0.68,0.47-1.11,0.47C554.33,762.75,553.95,762.59,553.63,762.28z"/>
			<path class="st3" d="M289.67,794.41c1.26,0.6,2.26,1.47,2.98,2.59c0.72,1.13,1.08,2.42,1.08,3.88c0,1.53-0.38,2.88-1.13,4.04
				c-0.76,1.16-1.79,2.06-3.1,2.7c-1.31,0.64-2.78,0.96-4.4,0.96c-3.27,0-5.8-1.05-7.57-3.17s-2.66-5.11-2.66-8.98
				c0-2.72,0.48-5.03,1.44-6.95c0.96-1.92,2.31-3.37,4.04-4.35c1.73-0.99,3.74-1.48,6.04-1.48c1.18,0,2.3,0.12,3.34,0.37
				c1.04,0.24,1.95,0.6,2.72,1.06l-1.32,2.72c-1.16-0.77-2.72-1.15-4.67-1.15c-2.53,0-4.51,0.78-5.95,2.35s-2.16,3.85-2.16,6.84
				c0,0.37,0.01,0.66,0.04,0.87c0.7-1.04,1.65-1.84,2.87-2.39s2.59-0.82,4.13-0.82C286.97,793.51,288.4,793.81,289.67,794.41z
				 M288.85,804.48c1-0.86,1.5-2.01,1.5-3.45c0-1.44-0.5-2.58-1.51-3.43c-1.01-0.85-2.36-1.27-4.06-1.27
				c-1.09,0-2.06,0.21-2.91,0.63s-1.51,0.99-1.98,1.71c-0.48,0.72-0.71,1.52-0.71,2.4c0,0.86,0.23,1.64,0.68,2.35
				c0.45,0.71,1.11,1.28,1.98,1.71c0.87,0.43,1.91,0.64,3.12,0.64C286.55,805.77,287.85,805.33,288.85,804.48z"/>
			<path class="st3" d="M323.25,783.93v2.37l-9.85,22.01h-3.69l9.64-21.34h-11.14v4.35h-3.34v-7.38H323.25z"/>
			<path class="st3" d="M337,795.18c-1.05-1.23-1.57-2.83-1.57-4.8c0-1.97,0.52-3.57,1.57-4.8c1.04-1.23,2.41-1.85,4.11-1.85
				c1.69,0,3.06,0.61,4.09,1.83s1.55,2.82,1.55,4.82c0,2-0.52,3.6-1.55,4.82c-1.03,1.22-2.4,1.83-4.09,1.83
				C339.42,797.03,338.05,796.41,337,795.18z M343.62,793.8c0.6-0.82,0.91-1.97,0.91-3.43s-0.3-2.6-0.91-3.43
				c-0.6-0.82-1.44-1.24-2.51-1.24c-1.05,0-1.88,0.42-2.49,1.25c-0.61,0.84-0.92,1.97-0.92,3.41c0,1.44,0.31,2.58,0.92,3.41
				c0.61,0.84,1.44,1.25,2.49,1.25C342.18,795.04,343.02,794.63,343.62,793.8z M355.81,783.93h2.68l-16.64,24.37h-2.68
				L355.81,783.93z M352.45,806.69c-1.03-1.22-1.55-2.83-1.55-4.82c0-2,0.52-3.6,1.55-4.82c1.03-1.22,2.4-1.83,4.09-1.83
				s3.06,0.61,4.11,1.85c1.04,1.23,1.57,2.83,1.57,4.8c0,1.97-0.52,3.58-1.57,4.81c-1.05,1.23-2.42,1.85-4.11,1.85
				S353.48,807.91,352.45,806.69z M359.03,805.28c0.61-0.84,0.92-1.97,0.92-3.41c0-1.44-0.31-2.58-0.92-3.41
				c-0.62-0.84-1.44-1.25-2.49-1.25c-1.07,0-1.9,0.41-2.51,1.23c-0.6,0.82-0.91,1.97-0.91,3.43c0,1.46,0.3,2.61,0.91,3.43
				c0.6,0.82,1.44,1.24,2.51,1.24C357.58,806.53,358.41,806.11,359.03,805.28z"/>
			<path class="st3" d="M395.32,783.93h10.27c2.58,0,4.86,0.51,6.86,1.53c2,1.02,3.55,2.45,4.65,4.3c1.1,1.85,1.65,3.96,1.65,6.35
				s-0.55,4.51-1.65,6.35c-1.1,1.85-2.65,3.28-4.65,4.3c-2,1.02-4.28,1.53-6.86,1.53h-10.27V783.93z M405.39,805.28
				c1.97,0,3.71-0.38,5.21-1.15c1.5-0.77,2.65-1.84,3.46-3.22c0.81-1.38,1.22-2.98,1.22-4.79s-0.41-3.41-1.22-4.79
				c-0.81-1.38-1.97-2.46-3.46-3.22c-1.5-0.77-3.23-1.15-5.21-1.15h-6.58v18.31H405.39z"/>
			<path class="st3" d="M451.17,805.28v3.03h-17.69v-24.37h17.2v3.03h-13.72v7.49h12.22v2.96h-12.22v7.87H451.17z"/>
			<path class="st3" d="M466.21,783.93h3.48v21.34h13.2v3.03h-16.68V783.93z"/>
			<path class="st3" d="M519.36,806.96c-1.96-1.08-3.5-2.56-4.61-4.46c-1.11-1.89-1.67-4.02-1.67-6.39c0-2.37,0.56-4.5,1.67-6.39
				c1.12-1.89,2.66-3.38,4.63-4.46c1.97-1.08,4.18-1.62,6.62-1.62c1.9,0,3.64,0.32,5.22,0.96c1.58,0.64,2.93,1.58,4.04,2.84
				l-2.26,2.19c-1.83-1.92-4.12-2.89-6.86-2.89c-1.81,0-3.45,0.41-4.91,1.22c-1.46,0.81-2.61,1.93-3.43,3.36
				c-0.82,1.43-1.24,3.02-1.24,4.79c0,1.76,0.41,3.36,1.24,4.79c0.82,1.43,1.97,2.55,3.43,3.36c1.46,0.81,3.1,1.22,4.91,1.22
				c2.72,0,5-0.97,6.86-2.92l2.26,2.19c-1.11,1.25-2.47,2.21-4.06,2.86c-1.59,0.65-3.34,0.97-5.24,0.97
				C523.52,808.58,521.32,808.04,519.36,806.96z"/>
			<path class="st3" d="M564.57,802.21h-12.95l-2.68,6.09h-3.59l11.04-24.37h3.45l11.07,24.37h-3.66L564.57,802.21z M563.35,799.43
				l-5.26-11.94l-5.26,11.94H563.35z"/>
			<path class="st3" d="M600.89,786.2c1.81,1.51,2.72,3.59,2.72,6.23c0,2.65-0.91,4.72-2.72,6.23c-1.81,1.51-4.3,2.26-7.45,2.26
				h-6.02v7.38h-3.48v-24.37h9.5C596.59,783.93,599.08,784.69,600.89,786.2z M598.38,796.49c1.16-0.94,1.74-2.29,1.74-4.06
				c0-1.76-0.58-3.12-1.74-4.06c-1.16-0.94-2.84-1.41-5.05-1.41h-5.92v10.93h5.92C595.54,797.89,597.22,797.43,598.38,796.49z"/>
			<path class="st3" d="M618.12,783.93h3.48v24.37h-3.48V783.93z"/>
			<path class="st3" d="M643.16,786.96h-8.36v-3.03h20.16v3.03h-8.36v21.34h-3.45V786.96z"/>
			<path class="st3" d="M682.46,802.21h-12.95l-2.68,6.09h-3.59l11.04-24.37h3.45l11.07,24.37h-3.66L682.46,802.21z M681.25,799.43
				l-5.26-11.94l-5.26,11.94H681.25z"/>
			<path class="st3" d="M701.82,783.93h3.48v21.34h13.2v3.03h-16.68V783.93z"/>
		</g>
		<g>
			<path class="st2" d="M288.55,914.83h-8.9l-1.84,4.19h-2.47l7.59-16.76h2.37l7.61,16.76h-2.51L288.55,914.83z M287.71,912.92
				l-3.61-8.21l-3.61,8.21H287.71z"/>
			<path class="st2" d="M301.86,902.27h7.06c1.77,0,3.34,0.35,4.72,1.06c1.37,0.7,2.44,1.69,3.2,2.96s1.14,2.73,1.14,4.37
				c0,1.64-0.38,3.1-1.14,4.37c-0.76,1.27-1.82,2.25-3.2,2.96c-1.37,0.7-2.94,1.05-4.72,1.05h-7.06V902.27z M308.77,916.94
				c1.36,0,2.55-0.26,3.58-0.79c1.03-0.53,1.82-1.26,2.38-2.21c0.56-0.95,0.84-2.05,0.84-3.29c0-1.25-0.28-2.34-0.84-3.29
				c-0.56-0.95-1.35-1.69-2.38-2.21c-1.03-0.53-2.22-0.79-3.58-0.79h-4.52v12.59H308.77z"/>
			<path class="st2" d="M345.35,920.56c-0.54,0.64-1.17,1.12-1.89,1.46s-1.49,0.5-2.32,0.5c-1.05,0-2.04-0.25-2.96-0.76
				c-0.92-0.5-1.97-1.36-3.15-2.57c-1.58-0.08-3-0.5-4.27-1.27c-1.27-0.77-2.26-1.78-2.97-3.05c-0.71-1.27-1.06-2.68-1.06-4.22
				c0-1.61,0.39-3.07,1.16-4.38c0.77-1.31,1.84-2.33,3.2-3.08c1.36-0.74,2.88-1.11,4.57-1.11c1.68,0,3.19,0.37,4.55,1.11
				c1.36,0.74,2.42,1.76,3.18,3.06c0.76,1.3,1.15,2.76,1.15,4.39c0,1.37-0.28,2.63-0.82,3.78c-0.55,1.15-1.32,2.12-2.32,2.9
				c-1,0.78-2.14,1.32-3.43,1.63c0.56,0.59,1.1,1.02,1.62,1.28c0.52,0.26,1.05,0.4,1.59,0.4c1.18,0,2.2-0.48,3.06-1.44
				L345.35,920.56z M329.97,913.94c0.57,0.98,1.35,1.75,2.35,2.31c1,0.56,2.11,0.84,3.34,0.84c1.21,0,2.31-0.28,3.3-0.84
				c0.99-0.56,1.77-1.33,2.33-2.31c0.57-0.98,0.85-2.08,0.85-3.29c0-1.21-0.28-2.31-0.85-3.29c-0.57-0.98-1.35-1.75-2.33-2.31
				c-0.99-0.56-2.09-0.84-3.3-0.84c-1.23,0-2.34,0.28-3.34,0.84c-1,0.56-1.78,1.33-2.35,2.31c-0.57,0.98-0.85,2.08-0.85,3.29
				C329.12,911.86,329.4,912.95,329.97,913.94z"/>
			<path class="st2" d="M356.39,917.3c-1.24-1.28-1.87-3.11-1.87-5.51v-9.53h2.39v9.43c0,3.59,1.57,5.39,4.71,5.39
				c1.53,0,2.71-0.44,3.52-1.33c0.81-0.89,1.22-2.24,1.22-4.06v-9.43h2.32v9.53c0,2.41-0.62,4.25-1.87,5.52
				c-1.24,1.27-2.98,1.9-5.22,1.9C359.37,919.21,357.63,918.58,356.39,917.3z"/>
			<path class="st2" d="M380.06,902.27h2.39v16.76h-2.39V902.27z"/>
			<path class="st2" d="M395.17,918.63c-1.17-0.39-2.09-0.9-2.76-1.52l0.89-1.87c0.64,0.58,1.46,1.04,2.45,1.4
				c1,0.36,2.02,0.54,3.08,0.54c1.39,0,2.43-0.24,3.11-0.71c0.69-0.47,1.03-1.1,1.03-1.88c0-0.57-0.19-1.04-0.56-1.4
				c-0.37-0.36-0.84-0.64-1.39-0.83c-0.55-0.19-1.33-0.41-2.33-0.65c-1.26-0.3-2.28-0.61-3.05-0.91s-1.44-0.77-1.99-1.4
				c-0.55-0.63-0.82-1.48-0.82-2.55c0-0.89,0.23-1.7,0.71-2.42c0.47-0.72,1.18-1.29,2.14-1.72c0.96-0.43,2.15-0.65,3.57-0.65
				c0.99,0,1.96,0.13,2.92,0.38c0.96,0.25,1.78,0.62,2.47,1.1l-0.79,1.92c-0.7-0.45-1.45-0.79-2.25-1.02
				c-0.8-0.23-1.58-0.35-2.35-0.35c-1.36,0-2.37,0.25-3.05,0.74c-0.68,0.49-1.02,1.13-1.02,1.91c0,0.58,0.19,1.04,0.57,1.4
				c0.38,0.36,0.86,0.64,1.42,0.84c0.57,0.2,1.34,0.41,2.31,0.64c1.26,0.3,2.27,0.61,3.04,0.91c0.77,0.31,1.42,0.77,1.98,1.39
				c0.55,0.62,0.82,1.46,0.82,2.51c0,0.88-0.24,1.68-0.72,2.4c-0.48,0.73-1.2,1.3-2.18,1.72c-0.97,0.42-2.17,0.64-3.59,0.64
				C397.56,919.21,396.35,919.02,395.17,918.63z"/>
			<path class="st2" d="M415.27,902.27h2.39v16.76h-2.39V902.27z"/>
			<path class="st2" d="M432.11,918.1c-1.35-0.74-2.41-1.76-3.17-3.06c-0.77-1.3-1.15-2.76-1.15-4.39c0-1.63,0.38-3.09,1.15-4.39
				c0.77-1.3,1.83-2.32,3.18-3.06c1.35-0.74,2.87-1.11,4.55-1.11c1.31,0,2.51,0.22,3.59,0.66c1.09,0.44,2.01,1.09,2.78,1.95
				l-1.56,1.51c-1.26-1.32-2.83-1.98-4.72-1.98c-1.24,0-2.37,0.28-3.37,0.84c-1,0.56-1.79,1.33-2.36,2.31
				c-0.57,0.98-0.85,2.08-0.85,3.29c0,1.21,0.28,2.31,0.85,3.29c0.57,0.98,1.35,1.75,2.36,2.31c1.01,0.56,2.13,0.84,3.37,0.84
				c1.87,0,3.44-0.67,4.72-2.01l1.56,1.51c-0.77,0.86-1.7,1.52-2.79,1.96c-1.09,0.45-2.3,0.67-3.6,0.67
				C434.97,919.21,433.46,918.84,432.11,918.1z"/>
			<path class="st2" d="M452.92,902.27h2.39v16.76h-2.39V902.27z"/>
			<path class="st2" d="M469.8,918.1c-1.36-0.74-2.42-1.77-3.2-3.08c-0.77-1.31-1.16-2.77-1.16-4.38c0-1.61,0.39-3.07,1.16-4.38
				c0.77-1.31,1.84-2.33,3.2-3.08c1.36-0.74,2.88-1.11,4.57-1.11c1.68,0,3.19,0.37,4.55,1.11c1.36,0.74,2.42,1.76,3.18,3.06
				c0.76,1.3,1.15,2.76,1.15,4.39c0,1.63-0.38,3.09-1.15,4.39c-0.77,1.3-1.83,2.32-3.18,3.06c-1.36,0.74-2.87,1.11-4.55,1.11
				C472.68,919.21,471.16,918.84,469.8,918.1z M477.69,916.25c0.98-0.56,1.76-1.33,2.32-2.31c0.57-0.98,0.85-2.08,0.85-3.29
				c0-1.21-0.28-2.31-0.85-3.29c-0.57-0.98-1.34-1.75-2.32-2.31c-0.98-0.56-2.09-0.84-3.32-0.84c-1.23,0-2.34,0.28-3.34,0.84
				c-1,0.56-1.78,1.33-2.35,2.31c-0.57,0.98-0.85,2.08-0.85,3.29c0,1.21,0.28,2.31,0.85,3.29c0.57,0.98,1.35,1.75,2.35,2.31
				c1,0.56,2.11,0.84,3.34,0.84C475.6,917.09,476.7,916.8,477.69,916.25z M475.83,897.79h2.92l-4.02,3.11h-2.16L475.83,897.79z"/>
			<path class="st2" d="M507.79,902.27v16.76h-1.96l-10.05-12.5v12.5h-2.39v-16.76h1.96l10.05,12.5v-12.5H507.79z"/>
			<path class="st2" d="M518.34,909.03c-0.32-0.31-0.48-0.71-0.48-1.19c0-0.46,0.16-0.85,0.48-1.16c0.32-0.31,0.7-0.47,1.15-0.47
				s0.82,0.15,1.12,0.46c0.3,0.3,0.46,0.7,0.46,1.17c0,0.48-0.16,0.88-0.47,1.19c-0.31,0.31-0.68,0.47-1.11,0.47
				C519.05,909.5,518.66,909.34,518.34,909.03z M518.34,918.7c-0.32-0.31-0.48-0.71-0.48-1.18c0-0.46,0.16-0.85,0.48-1.16
				c0.32-0.31,0.7-0.47,1.15-0.47s0.82,0.15,1.12,0.46c0.3,0.31,0.46,0.7,0.46,1.17c0,0.48-0.16,0.87-0.47,1.18
				c-0.31,0.31-0.68,0.47-1.11,0.47C519.05,919.17,518.66,919.01,518.34,918.7z"/>
			<path class="st3" d="M294.16,961.69v3.03h-17.51v-2.37l9.92-9.57c1.21-1.16,2.02-2.16,2.44-3.01c0.42-0.85,0.63-1.7,0.63-2.56
				c0-1.28-0.45-2.27-1.34-2.98c-0.89-0.71-2.18-1.06-3.85-1.06c-2.69,0-4.77,0.88-6.23,2.65l-2.37-2.06
				c0.95-1.16,2.2-2.07,3.74-2.72c1.54-0.65,3.27-0.98,5.17-0.98c2.55,0,4.58,0.61,6.09,1.83c1.51,1.22,2.26,2.87,2.26,4.96
				c0,1.3-0.28,2.53-0.84,3.69c-0.56,1.16-1.61,2.48-3.17,3.97l-7.45,7.17H294.16z"/>
			<path class="st3" d="M311.13,963.52c-1.5-0.99-2.68-2.42-3.53-4.3c-0.86-1.88-1.29-4.11-1.29-6.68s0.43-4.81,1.29-6.69
				c0.86-1.88,2.04-3.31,3.53-4.3c1.5-0.99,3.21-1.48,5.14-1.48c1.9,0,3.6,0.49,5.1,1.48c1.5,0.99,2.67,2.42,3.53,4.3
				c0.86,1.88,1.29,4.11,1.29,6.69s-0.43,4.8-1.29,6.68c-0.86,1.88-2.04,3.31-3.53,4.3c-1.5,0.99-3.2,1.48-5.1,1.48
				C314.34,965,312.63,964.51,311.13,963.52z M320.95,959.5c1.17-1.6,1.76-3.92,1.76-6.96c0-3.04-0.59-5.36-1.76-6.97
				c-1.17-1.6-2.73-2.4-4.68-2.4c-1.97,0-3.55,0.8-4.72,2.4c-1.17,1.6-1.76,3.92-1.76,6.97c0,3.04,0.59,5.36,1.76,6.96
				c1.17,1.6,2.75,2.4,4.72,2.4C318.22,961.9,319.78,961.1,320.95,959.5z"/>
			<path class="st3" d="M346.39,940.35v24.37h-3.45v-21.34h-5.5v-3.03H346.39z"/>
			<path class="st3" d="M375.76,952.03c1.64,1.31,2.45,3.11,2.45,5.38c0,1.44-0.34,2.73-1.03,3.88c-0.68,1.15-1.72,2.05-3.1,2.72
				c-1.38,0.66-3.08,0.99-5.1,0.99c-1.72,0-3.38-0.26-4.98-0.78c-1.6-0.52-2.92-1.25-3.97-2.18l1.6-2.75c0.84,0.79,1.9,1.42,3.2,1.9
				c1.3,0.48,2.67,0.71,4.11,0.71c1.83,0,3.26-0.39,4.27-1.17c1.01-0.78,1.52-1.84,1.52-3.18c0-1.46-0.56-2.57-1.67-3.33
				c-1.11-0.76-3.02-1.13-5.71-1.13h-5.54l1.29-12.74h13.75v3.03h-10.83l-0.66,6.68h2.72C371.56,950.06,374.12,950.72,375.76,952.03
				z"/>
		</g>
		<g>
			<path class="st2" d="M274.75,609.55c-1.17-0.39-2.09-0.9-2.76-1.52l0.89-1.87c0.64,0.57,1.46,1.04,2.45,1.4
				c1,0.36,2.02,0.54,3.08,0.54c1.39,0,2.43-0.24,3.11-0.71c0.69-0.47,1.03-1.1,1.03-1.88c0-0.57-0.19-1.04-0.56-1.4
				s-0.84-0.63-1.39-0.83c-0.55-0.19-1.33-0.41-2.33-0.65c-1.26-0.3-2.28-0.61-3.05-0.91c-0.77-0.3-1.44-0.77-1.99-1.4
				c-0.55-0.63-0.82-1.48-0.82-2.55c0-0.89,0.23-1.7,0.71-2.42c0.47-0.72,1.18-1.29,2.14-1.72c0.96-0.43,2.15-0.65,3.57-0.65
				c0.99,0,1.96,0.13,2.92,0.38c0.96,0.26,1.78,0.62,2.47,1.1l-0.79,1.92c-0.7-0.45-1.45-0.79-2.25-1.02
				c-0.8-0.23-1.58-0.35-2.35-0.35c-1.36,0-2.37,0.25-3.05,0.74c-0.68,0.49-1.02,1.13-1.02,1.91c0,0.57,0.19,1.04,0.57,1.4
				c0.38,0.36,0.86,0.64,1.42,0.84c0.57,0.2,1.34,0.41,2.31,0.63c1.26,0.3,2.27,0.61,3.04,0.91s1.42,0.77,1.98,1.39
				c0.55,0.62,0.82,1.46,0.82,2.51c0,0.88-0.24,1.68-0.72,2.41c-0.48,0.73-1.2,1.3-2.18,1.72c-0.97,0.42-2.17,0.63-3.59,0.63
				C277.14,610.14,275.93,609.94,274.75,609.55z"/>
			<path class="st2" d="M307.01,607.87v2.08h-12.16v-16.76h11.82v2.08h-9.43v5.15h8.4v2.04h-8.4v5.41H307.01z"/>
			<path class="st2" d="M317.35,593.19h7.06c1.77,0,3.34,0.35,4.72,1.05s2.44,1.69,3.2,2.96c0.76,1.27,1.14,2.73,1.14,4.37
				c0,1.64-0.38,3.1-1.14,4.37c-0.76,1.27-1.82,2.25-3.2,2.96c-1.37,0.7-2.94,1.05-4.72,1.05h-7.06V593.19z M324.27,607.87
				c1.36,0,2.55-0.26,3.58-0.79c1.03-0.53,1.82-1.26,2.38-2.21c0.56-0.95,0.84-2.05,0.84-3.29c0-1.24-0.28-2.34-0.84-3.29
				c-0.56-0.95-1.35-1.69-2.38-2.21c-1.03-0.53-2.22-0.79-3.58-0.79h-4.52v12.59H324.27z"/>
			<path class="st2" d="M355.74,607.87v2.08h-12.16v-16.76h11.82v2.08h-9.43v5.15h8.4v2.04h-8.4v5.41H355.74z"/>
			<path class="st2" d="M364.98,599.95c-0.32-0.31-0.48-0.71-0.48-1.18c0-0.46,0.16-0.85,0.48-1.16c0.32-0.31,0.7-0.47,1.15-0.47
				s0.82,0.15,1.12,0.45c0.3,0.3,0.46,0.69,0.46,1.17c0,0.48-0.16,0.87-0.47,1.18c-0.31,0.31-0.68,0.47-1.11,0.47
				C365.69,600.42,365.3,600.27,364.98,599.95z M364.98,609.62c-0.32-0.31-0.48-0.71-0.48-1.19c0-0.46,0.16-0.85,0.48-1.16
				c0.32-0.31,0.7-0.47,1.15-0.47s0.82,0.15,1.12,0.45c0.3,0.3,0.46,0.69,0.46,1.17c0,0.48-0.16,0.87-0.47,1.19
				c-0.31,0.31-0.68,0.47-1.11,0.47C365.69,610.09,365.3,609.94,364.98,609.62z"/>
			<path class="st3" d="M291.62,633.54c1.81,1.51,2.72,3.59,2.72,6.23c0,2.65-0.91,4.72-2.72,6.23c-1.81,1.51-4.3,2.26-7.45,2.26
				h-6.02v7.38h-3.48v-24.37h9.5C287.32,631.27,289.81,632.03,291.62,633.54z M289.11,643.83c1.16-0.94,1.74-2.29,1.74-4.06
				c0-1.76-0.58-3.12-1.74-4.06c-1.16-0.94-2.84-1.41-5.05-1.41h-5.92v10.93h5.92C286.27,645.24,287.95,644.77,289.11,643.83z"/>
			<path class="st3" d="M313.55,654.31c-1.97-1.08-3.52-2.57-4.65-4.47c-1.13-1.9-1.69-4.03-1.69-6.37s0.56-4.47,1.69-6.37
				c1.13-1.9,2.67-3.39,4.65-4.47c1.97-1.08,4.19-1.62,6.65-1.62c2.44,0,4.64,0.54,6.62,1.62c1.97,1.08,3.52,2.57,4.63,4.46
				c1.11,1.89,1.67,4.02,1.67,6.39c0,2.37-0.56,4.5-1.67,6.39c-1.11,1.89-2.66,3.38-4.63,4.46c-1.97,1.08-4.18,1.62-6.62,1.62
				C317.74,655.93,315.53,655.39,313.55,654.31z M325.03,651.61c1.43-0.81,2.55-1.93,3.38-3.36c0.82-1.43,1.24-3.02,1.24-4.79
				c0-1.76-0.41-3.36-1.24-4.79c-0.82-1.43-1.95-2.55-3.38-3.36c-1.43-0.81-3.04-1.22-4.82-1.22c-1.79,0-3.41,0.41-4.86,1.22
				c-1.45,0.81-2.59,1.93-3.41,3.36c-0.82,1.43-1.24,3.02-1.24,4.79c0,1.76,0.41,3.36,1.24,4.79c0.82,1.43,1.96,2.55,3.41,3.36
				c1.45,0.81,3.07,1.22,4.86,1.22C321.99,652.83,323.6,652.42,325.03,651.61z"/>
			<path class="st3" d="M364.14,655.65l-5.26-7.49c-0.65,0.05-1.16,0.07-1.53,0.07h-6.02v7.42h-3.48v-24.37h9.5
				c3.16,0,5.64,0.75,7.45,2.26c1.81,1.51,2.72,3.59,2.72,6.23c0,1.88-0.46,3.48-1.39,4.8c-0.93,1.32-2.25,2.29-3.97,2.89l5.78,8.18
				H364.14z M362.3,643.84c1.16-0.95,1.74-2.31,1.74-4.07c0-1.76-0.58-3.12-1.74-4.06c-1.16-0.94-2.84-1.41-5.05-1.41h-5.92v10.97
				h5.92C359.45,645.27,361.14,644.79,362.3,643.84z"/>
			<path class="st3" d="M387.05,634.3h-8.36v-3.03h20.16v3.03h-8.36v21.34h-3.45V634.3z"/>
			<path class="st3" d="M414.11,653.14c-1.81-1.86-2.72-4.53-2.72-8.01v-13.86h3.48v13.72c0,5.22,2.29,7.83,6.86,7.83
				c2.23,0,3.94-0.64,5.12-1.93c1.18-1.29,1.78-3.26,1.78-5.9v-13.72H432v13.86c0,3.51-0.91,6.18-2.72,8.03
				c-1.81,1.85-4.34,2.77-7.59,2.77C418.45,655.93,415.92,655,414.11,653.14z"/>
			<path class="st3" d="M465.43,643.32h3.34v9.51c-1.21,1-2.61,1.76-4.21,2.3s-3.27,0.8-5.01,0.8c-2.46,0-4.68-0.54-6.65-1.62
				c-1.97-1.08-3.52-2.56-4.65-4.46c-1.13-1.89-1.69-4.02-1.69-6.39c0-2.37,0.56-4.5,1.69-6.41c1.13-1.9,2.68-3.39,4.67-4.46
				c1.98-1.07,4.22-1.6,6.7-1.6c1.95,0,3.72,0.32,5.31,0.96c1.59,0.64,2.94,1.57,4.06,2.8l-2.16,2.16
				c-1.95-1.88-4.31-2.82-7.07-2.82c-1.86,0-3.52,0.4-5,1.2c-1.47,0.8-2.63,1.91-3.46,3.34c-0.84,1.43-1.25,3.03-1.25,4.82
				c0,1.76,0.42,3.36,1.25,4.79c0.84,1.43,1.99,2.55,3.46,3.36c1.47,0.81,3.13,1.22,4.96,1.22c2.18,0,4.09-0.52,5.71-1.57V643.32z"
				/>
			<path class="st3" d="M500.35,649.55H487.4l-2.68,6.09h-3.59l11.04-24.37h3.45l11.07,24.37h-3.66L500.35,649.55z M499.13,646.77
				l-5.26-11.94l-5.26,11.94H499.13z"/>
			<path class="st3" d="M519.71,631.27h3.48v21.34h13.2v3.03h-16.68V631.27z"/>
		</g>
		<g class="st4">
			<path class="st2" d="M56.17,430.04v1.64H43.46v-17.98h12.33v1.64H45.36v6.39h9.3v1.62h-9.3v6.68H56.17z"/>
			<path class="st2" d="M83.36,413.71v17.98H81.8L70.24,417.1v14.59h-1.9v-17.98h1.57l11.58,14.59v-14.59H83.36z"/>
			<path class="st2" d="M109.63,430.04v1.64H96.92v-17.98h12.33v1.64H98.82v6.39h9.3v1.62h-9.3v6.68H109.63z"/>
			<path class="st2" d="M134.08,431.68l-4.11-5.78c-0.46,0.05-0.94,0.08-1.44,0.08h-4.83v5.7h-1.9v-17.98h6.73
				c2.29,0,4.09,0.55,5.39,1.64s1.95,2.6,1.95,4.52c0,1.4-0.35,2.59-1.07,3.56c-0.71,0.97-1.73,1.67-3.04,2.09l4.39,6.16H134.08z
				 M132.56,423.18c0.94-0.79,1.41-1.89,1.41-3.31c0-1.45-0.47-2.57-1.41-3.35c-0.94-0.78-2.3-1.17-4.08-1.17h-4.78v9.01h4.78
				C130.26,424.36,131.62,423.97,132.56,423.18z"/>
			<path class="st2" d="M160.73,422.69h1.82v6.86c-0.84,0.74-1.83,1.3-2.98,1.7c-1.15,0.39-2.35,0.59-3.62,0.59
				c-1.8,0-3.41-0.39-4.85-1.18c-1.44-0.79-2.57-1.88-3.39-3.27c-0.82-1.4-1.23-2.96-1.23-4.69c0-1.73,0.41-3.29,1.23-4.68
				c0.82-1.4,1.95-2.49,3.39-3.27c1.44-0.79,3.06-1.18,4.88-1.18c1.37,0,2.63,0.22,3.77,0.65c1.15,0.44,2.11,1.08,2.9,1.94
				l-1.18,1.21c-1.42-1.4-3.23-2.11-5.42-2.11c-1.45,0-2.77,0.32-3.94,0.96c-1.17,0.64-2.09,1.53-2.76,2.67s-1,2.41-1,3.81
				c0,1.4,0.33,2.67,1,3.8s1.58,2.02,2.75,2.67c1.16,0.65,2.47,0.98,3.93,0.98c1.85,0,3.41-0.46,4.7-1.39V422.69z"/>
			<path class="st2" d="M178.42,409.06h2.44l-4.16,3.18h-1.8L178.42,409.06z M175.63,413.71h1.9v17.98h-1.9V413.71z"/>
			<path class="st2" d="M202.36,426.88h-10.01l-2.16,4.8h-1.98l8.22-17.98h1.87l8.22,17.98h-2L202.36,426.88z M201.66,425.34
				l-4.31-9.66l-4.31,9.66H201.66z"/>
			<path class="st2" d="M244.34,430.04v1.64h-12.71v-17.98h12.32v1.64h-10.42v6.39h9.29v1.62h-9.29v6.68H244.34z"/>
			<path class="st2" d="M270.94,413.71h1.9v17.98h-1.9V413.71z"/>
			<path class="st2" d="M301.42,413.71v17.98h-1.57L288.3,417.1v14.59h-1.9v-17.98h1.57l11.58,14.59v-14.59H301.42z"/>
			<path class="st2" d="M327.64,422.69h1.82v6.86c-0.84,0.74-1.83,1.3-2.98,1.7c-1.15,0.39-2.35,0.59-3.62,0.59
				c-1.8,0-3.41-0.39-4.85-1.18c-1.44-0.79-2.57-1.88-3.39-3.27c-0.82-1.4-1.23-2.96-1.23-4.69c0-1.73,0.41-3.29,1.23-4.68
				c0.82-1.4,1.95-2.49,3.39-3.27c1.44-0.79,3.06-1.18,4.88-1.18c1.37,0,2.63,0.22,3.77,0.65c1.15,0.44,2.11,1.08,2.9,1.94
				l-1.18,1.21c-1.42-1.4-3.23-2.11-5.42-2.11c-1.45,0-2.77,0.32-3.94,0.96c-1.17,0.64-2.09,1.53-2.76,2.67
				c-0.67,1.14-1,2.41-1,3.81c0,1.4,0.33,2.67,1,3.8c0.67,1.13,1.58,2.02,2.75,2.67c1.16,0.65,2.47,0.98,3.93,0.98
				c1.85,0,3.41-0.46,4.7-1.39V422.69z"/>
			<path class="st2" d="M355.25,430.04v1.64h-12.71v-17.98h12.32v1.64h-10.42v6.39h9.29v1.62h-9.29v6.68H355.25z"/>
			<path class="st2" d="M382.44,413.71v17.98h-1.57l-11.55-14.59v14.59h-1.9v-17.98h1.57l11.58,14.59v-14.59H382.44z"/>
			<path class="st2" d="M396,413.71h1.9v17.98H396V413.71z"/>
			<path class="st2" d="M424.17,430.04v1.64h-12.71v-17.98h12.32v1.64h-10.42v6.39h9.29v1.62h-9.29v6.68H424.17z"/>
			<path class="st2" d="M448.62,431.68l-4.11-5.78c-0.46,0.05-0.94,0.08-1.44,0.08h-4.83v5.7h-1.9v-17.98h6.73
				c2.29,0,4.09,0.55,5.39,1.64s1.95,2.6,1.95,4.52c0,1.4-0.36,2.59-1.07,3.56c-0.71,0.97-1.73,1.67-3.04,2.09l4.39,6.16H448.62z
				 M447.1,423.18c0.94-0.79,1.41-1.89,1.41-3.31c0-1.45-0.47-2.57-1.41-3.35c-0.94-0.78-2.3-1.17-4.08-1.17h-4.78v9.01h4.78
				C444.8,424.36,446.16,423.97,447.1,423.18z"/>
			<path class="st2" d="M465.41,409.06h2.44l-4.16,3.18h-1.8L465.41,409.06z M462.61,413.71h1.9v17.98h-1.9V413.71z"/>
			<path class="st2" d="M489.34,426.88h-10.01l-2.16,4.8h-1.98l8.22-17.98h1.87l8.22,17.98h-2L489.34,426.88z M488.65,425.34
				l-4.31-9.66l-4.31,9.66H488.65z"/>
		</g>
	</g>
</g>
<g id="Capa_3">
	<g>
		<path class="st2" d="M73.82,336.82c-16.79,0-30.02-5.81-30.02-29.38V104.7C43.8,81.13,57.04,75,73.82,75
			c15.82,0,30.67,7.1,30.67,29.38v103.95l-22.28-0.32V97.92c0-2.91-1.29-8.72-8.07-8.72c-6.78,0-8.07,5.81-8.07,8.72V313.9
			c0,1.94,0.65,8.72,7.75,8.72c6.13,0,8.39-5.17,8.39-8.72v-52.62h-7.1v-15.82h29.38v61.66C104.49,329.72,89.64,336.82,73.82,336.82
			z"/>
		<path class="st2" d="M167.77,260.63h-16.14v74.25h-22.28V104.38c0-23.24,13.24-29.38,30.02-29.38c15.82,0,30.67,7.43,30.67,29.38
			v230.51h-22.28V260.63z M159.7,89.2c-6.78,0-8.07,5.81-8.07,8.72v147.21h16.14V97.92C167.77,95.02,166.48,89.2,159.7,89.2z"/>
		<path class="st2" d="M216.51,75.97h22.28v243.74h16.46v15.17h-38.74V75.97z"/>
		<path class="st2" d="M311.1,260.63h-10.33v74.25H278.5V75.97h28.09c22.28,0,32.61,6.13,32.61,29.7v123.97
			C339.19,253.53,328.86,260.63,311.1,260.63z M307.23,90.17h-6.46v154.96h5.17c5.17,0,10.98-2.91,10.98-10.65V99.86
			C316.91,94.69,313.69,90.17,307.23,90.17z"/>
	</g>
	<g>
		<rect x="44.09" y="368.23" class="st3" width="203.21" height="2.01"/>
	</g>
	<g>
		<path class="st2" d="M287.47,747.55c1.25,1.04,1.87,2.47,1.87,4.29c0,1.82-0.62,3.25-1.87,4.29c-1.25,1.04-2.96,1.56-5.13,1.56
			h-4.14v5.08h-2.4v-16.77h6.54C284.52,745.99,286.23,746.51,287.47,747.55z M285.75,754.63c0.8-0.65,1.2-1.58,1.2-2.79
			s-0.4-2.14-1.2-2.79c-0.8-0.65-1.96-0.97-3.47-0.97h-4.07v7.52h4.07C283.79,755.6,284.95,755.27,285.75,754.63z"/>
		<path class="st2" d="M309.18,758.57h-8.91l-1.84,4.19h-2.47l7.6-16.77h2.37l7.62,16.77h-2.52L309.18,758.57z M308.34,756.65
			l-3.62-8.22l-3.62,8.22H308.34z"/>
		<path class="st2" d="M333.72,762.76l-3.62-5.15c-0.45,0.03-0.8,0.05-1.05,0.05h-4.14v5.1h-2.4v-16.77h6.54
			c2.17,0,3.88,0.52,5.13,1.56c1.25,1.04,1.87,2.47,1.87,4.29c0,1.29-0.32,2.4-0.96,3.31c-0.64,0.91-1.55,1.57-2.73,1.99l3.98,5.63
			H333.72z M332.45,754.64c0.8-0.65,1.2-1.59,1.2-2.8s-0.4-2.14-1.2-2.79c-0.8-0.65-1.96-0.97-3.47-0.97h-4.07v7.55h4.07
			C330.49,755.62,331.65,755.29,332.45,754.64z"/>
		<path class="st2" d="M349.48,748.07h-5.75v-2.08h13.87v2.08h-5.75v14.69h-2.37V748.07z"/>
		<path class="st2" d="M366.68,745.99h2.4v16.77h-2.4V745.99z"/>
		<path class="st2" d="M383.54,761.84c-1.35-0.74-2.41-1.77-3.17-3.07c-0.77-1.3-1.15-2.77-1.15-4.4s0.38-3.09,1.15-4.4
			c0.77-1.3,1.83-2.32,3.19-3.07c1.36-0.74,2.87-1.12,4.55-1.12c1.31,0,2.51,0.22,3.59,0.66c1.09,0.44,2.01,1.09,2.78,1.95
			l-1.56,1.51c-1.26-1.32-2.84-1.99-4.72-1.99c-1.25,0-2.37,0.28-3.38,0.84c-1.01,0.56-1.79,1.33-2.36,2.31
			c-0.57,0.98-0.85,2.08-0.85,3.29s0.28,2.31,0.85,3.29c0.57,0.98,1.35,1.75,2.36,2.31c1.01,0.56,2.13,0.84,3.38,0.84
			c1.87,0,3.44-0.67,4.72-2.01l1.56,1.51c-0.77,0.86-1.7,1.52-2.79,1.96c-1.1,0.45-2.3,0.67-3.61,0.67
			C386.4,762.95,384.89,762.58,383.54,761.84z"/>
		<path class="st2" d="M404.37,745.99h2.4v16.77h-2.4V745.99z"/>
		<path class="st2" d="M429.93,747.55c1.25,1.04,1.87,2.47,1.87,4.29c0,1.82-0.62,3.25-1.87,4.29c-1.25,1.04-2.96,1.56-5.13,1.56
			h-4.14v5.08h-2.4v-16.77h6.54C426.98,745.99,428.69,746.51,429.93,747.55z M428.21,754.63c0.8-0.65,1.2-1.58,1.2-2.79
			s-0.4-2.14-1.2-2.79c-0.8-0.65-1.96-0.97-3.47-0.97h-4.07v7.52h4.07C426.25,755.6,427.41,755.27,428.21,754.63z"/>
		<path class="st2" d="M451.64,758.57h-8.91l-1.84,4.19h-2.47l7.6-16.77h2.37l7.62,16.77h-2.52L451.64,758.57z M450.8,756.65
			l-3.62-8.22l-3.62,8.22H450.8z"/>
		<path class="st2" d="M467.68,761.84c-1.35-0.74-2.41-1.77-3.17-3.07c-0.77-1.3-1.15-2.77-1.15-4.4s0.38-3.09,1.15-4.4
			c0.77-1.3,1.83-2.32,3.19-3.07c1.36-0.74,2.87-1.12,4.55-1.12c1.31,0,2.51,0.22,3.59,0.66s2.01,1.09,2.78,1.95l-1.56,1.51
			c-1.26-1.32-2.84-1.99-4.72-1.99c-1.25,0-2.37,0.28-3.38,0.84c-1.01,0.56-1.79,1.33-2.36,2.31c-0.57,0.98-0.85,2.08-0.85,3.29
			s0.28,2.31,0.85,3.29c0.57,0.98,1.35,1.75,2.36,2.31c1.01,0.56,2.13,0.84,3.38,0.84c1.87,0,3.44-0.67,4.72-2.01l1.56,1.51
			c-0.77,0.86-1.7,1.52-2.79,1.96c-1.1,0.45-2.3,0.67-3.61,0.67C470.54,762.95,469.03,762.58,467.68,761.84z"/>
		<path class="st2" d="M488.51,745.99h2.4v16.77h-2.4V745.99z"/>
		<path class="st2" d="M505.4,761.84c-1.36-0.74-2.42-1.77-3.2-3.08c-0.77-1.31-1.16-2.77-1.16-4.38c0-1.61,0.39-3.08,1.16-4.38
			c0.77-1.31,1.84-2.34,3.2-3.08c1.36-0.74,2.88-1.12,4.58-1.12c1.68,0,3.2,0.37,4.55,1.12c1.36,0.74,2.42,1.76,3.19,3.07
			c0.77,1.3,1.15,2.77,1.15,4.4s-0.38,3.09-1.15,4.4c-0.77,1.3-1.83,2.32-3.19,3.07s-2.87,1.11-4.55,1.11
			C508.29,762.95,506.76,762.58,505.4,761.84z M513.3,759.98c0.98-0.56,1.76-1.33,2.32-2.31c0.57-0.98,0.85-2.08,0.85-3.29
			s-0.28-2.31-0.85-3.29c-0.57-0.98-1.34-1.75-2.32-2.31c-0.98-0.56-2.09-0.84-3.32-0.84c-1.23,0-2.34,0.28-3.34,0.84
			c-1,0.56-1.78,1.33-2.35,2.31c-0.57,0.98-0.85,2.08-0.85,3.29s0.28,2.31,0.85,3.29c0.57,0.98,1.35,1.75,2.35,2.31
			c1,0.56,2.11,0.84,3.34,0.84C511.21,760.82,512.31,760.54,513.3,759.98z M511.44,741.51h2.92l-4.02,3.11h-2.16L511.44,741.51z"/>
		<path class="st2" d="M543.43,745.99v16.77h-1.96l-10.06-12.51v12.51H529v-16.77h1.96l10.06,12.51v-12.51H543.43z"/>
		<path class="st2" d="M553.99,752.76c-0.32-0.31-0.48-0.71-0.48-1.19c0-0.46,0.16-0.85,0.48-1.16c0.32-0.31,0.7-0.47,1.15-0.47
			s0.82,0.15,1.13,0.45c0.3,0.3,0.46,0.7,0.46,1.17s-0.16,0.87-0.47,1.19c-0.31,0.31-0.68,0.47-1.11,0.47
			C554.69,753.22,554.31,753.07,553.99,752.76z M553.99,762.44c-0.32-0.31-0.48-0.71-0.48-1.19c0-0.46,0.16-0.85,0.48-1.16
			c0.32-0.31,0.7-0.47,1.15-0.47s0.82,0.15,1.13,0.45c0.3,0.3,0.46,0.69,0.46,1.17c0,0.48-0.16,0.87-0.47,1.19
			c-0.31,0.31-0.68,0.47-1.11,0.47C554.69,762.91,554.31,762.75,553.99,762.44z"/>
		<path class="st3" d="M289.79,794.6c1.27,0.6,2.26,1.47,2.98,2.6c0.72,1.13,1.08,2.42,1.08,3.89c0,1.53-0.38,2.88-1.13,4.04
			c-0.76,1.16-1.79,2.06-3.1,2.7c-1.31,0.64-2.78,0.96-4.41,0.96c-3.28,0-5.8-1.06-7.58-3.17c-1.78-2.11-2.67-5.11-2.67-8.99
			c0-2.72,0.48-5.04,1.45-6.95c0.96-1.92,2.31-3.37,4.04-4.36c1.73-0.99,3.75-1.48,6.05-1.48c1.18,0,2.3,0.12,3.35,0.37
			c1.05,0.24,1.95,0.6,2.72,1.06l-1.32,2.72c-1.16-0.77-2.72-1.15-4.67-1.15c-2.53,0-4.52,0.78-5.96,2.35s-2.16,3.85-2.16,6.85
			c0,0.37,0.01,0.66,0.04,0.87c0.7-1.05,1.65-1.84,2.87-2.39s2.6-0.82,4.13-0.82C287.09,793.69,288.53,793.99,289.79,794.6z
			 M288.97,804.67c1-0.86,1.5-2.01,1.5-3.45c0-1.44-0.5-2.59-1.52-3.43c-1.01-0.85-2.36-1.27-4.06-1.27c-1.09,0-2.06,0.21-2.91,0.63
			c-0.85,0.42-1.51,0.99-1.99,1.71c-0.48,0.72-0.71,1.52-0.71,2.41c0,0.86,0.23,1.64,0.68,2.35c0.45,0.71,1.11,1.28,1.99,1.71
			c0.87,0.43,1.91,0.65,3.12,0.65C286.67,805.96,287.97,805.53,288.97,804.67z"/>
		<path class="st3" d="M306.36,795.36c-1.05-1.23-1.57-2.84-1.57-4.81c0-1.97,0.52-3.58,1.57-4.81c1.05-1.23,2.41-1.85,4.11-1.85
			c1.7,0,3.06,0.61,4.09,1.83c1.03,1.22,1.55,2.83,1.55,4.83s-0.52,3.61-1.55,4.83c-1.03,1.22-2.4,1.83-4.09,1.83
			C308.78,797.21,307.41,796.59,306.36,795.36z M312.98,793.99c0.6-0.82,0.91-1.97,0.91-3.43s-0.3-2.61-0.91-3.43
			c-0.6-0.82-1.44-1.24-2.51-1.24c-1.05,0-1.88,0.42-2.49,1.26s-0.92,1.98-0.92,3.41c0,1.44,0.31,2.58,0.92,3.41
			c0.62,0.84,1.45,1.26,2.49,1.26C311.54,795.22,312.38,794.81,312.98,793.99z M325.18,784.11h2.68l-16.66,24.39h-2.68
			L325.18,784.11z M321.82,806.88c-1.03-1.22-1.55-2.83-1.55-4.83c0-2,0.52-3.61,1.55-4.83s2.4-1.83,4.09-1.83s3.07,0.62,4.11,1.85
			c1.05,1.23,1.57,2.84,1.57,4.81c0,1.98-0.52,3.58-1.57,4.81c-1.05,1.23-2.42,1.85-4.11,1.85S322.85,808.1,321.82,806.88z
			 M328.41,805.47c0.62-0.84,0.92-1.98,0.92-3.42c0-1.44-0.31-2.58-0.92-3.41c-0.62-0.84-1.45-1.25-2.49-1.25
			c-1.07,0-1.9,0.41-2.51,1.24c-0.6,0.83-0.91,1.97-0.91,3.43c0,1.47,0.3,2.61,0.91,3.43c0.6,0.83,1.44,1.24,2.51,1.24
			C326.96,806.72,327.79,806.31,328.41,805.47z"/>
		<path class="st3" d="M365.82,805.56c-0.72-2.78-1.08-5.76-1.08-8.94c0-3.18,0.36-6.17,1.08-8.97c0.72-2.8,1.74-5.24,3.07-7.33
			h3.17c-1.39,2.44-2.42,4.99-3.07,7.67c-0.65,2.67-0.98,5.55-0.98,8.64c0,3.09,0.32,5.97,0.98,8.64c0.65,2.67,1.67,5.23,3.07,7.67
			h-3.17C367.56,810.79,366.54,808.33,365.82,805.56z"/>
		<path class="st3" d="M401.06,806.51c-1.38,1.28-3.39,2.02-6.01,2.23v3.94h-2.23v-3.94c-1.7-0.09-3.3-0.41-4.83-0.96
			c-1.52-0.55-2.74-1.24-3.64-2.07l1.29-2.72c0.84,0.77,1.89,1.4,3.17,1.9c1.28,0.5,2.61,0.8,4.01,0.89v-8.08
			c-1.63-0.4-2.98-0.83-4.06-1.29c-1.08-0.46-1.99-1.15-2.72-2.05c-0.73-0.91-1.1-2.09-1.1-3.56c0-1.83,0.67-3.39,2-4.67
			c1.34-1.28,3.29-2.02,5.87-2.23v-3.97h2.23v3.94c1.32,0.05,2.61,0.26,3.85,0.63c1.24,0.37,2.32,0.87,3.22,1.5l-1.15,2.79
			c-1.88-1.18-3.86-1.83-5.93-1.95v8.12c1.7,0.42,3.09,0.85,4.18,1.31c1.09,0.45,2.02,1.13,2.77,2.02c0.75,0.89,1.13,2.09,1.13,3.57
			C403.14,803.68,402.45,805.24,401.06,806.51z M389.51,792.99c0.77,0.56,1.87,1.02,3.31,1.39v-7.53c-1.49,0.19-2.6,0.62-3.35,1.31
			c-0.74,0.68-1.11,1.51-1.11,2.49C388.36,791.66,388.75,792.43,389.51,792.99z M398.56,804.55c0.78-0.66,1.17-1.49,1.17-2.49
			c0-1.02-0.4-1.81-1.2-2.35c-0.8-0.55-1.96-1.03-3.47-1.45v7.49C396.61,805.61,397.78,805.21,398.56,804.55z"/>
		<path class="st3" d="M433.07,784.11v2.37l-9.86,22.03h-3.69l9.65-21.36h-11.15v4.36h-3.35v-7.39H433.07z"/>
		<path class="st3" d="M453.46,784.11v24.39h-3.45v-21.36h-5.51v-3.03H453.46z"/>
		<path class="st3" d="M489.43,802.51h-4.63v5.99h-3.38v-5.99h-13.56v-2.44l12.48-15.96h3.76l-11.95,15.4h9.37v-5.3h3.28v5.3h4.63
			V802.51z"/>
		<path class="st3" d="M544.31,808.5l-0.04-17.77l-8.82,14.81h-1.6l-8.82-14.71v17.67h-3.35v-24.39h2.86l10.17,17.15l10.04-17.15
			h2.86l0.04,24.39H544.31z"/>
		<path class="st3" d="M587,808.5l-0.04-17.77l-8.82,14.81h-1.6l-8.82-14.71v17.67h-3.35v-24.39h2.86l10.18,17.15l10.04-17.15h2.86
			l0.04,24.39H587z"/>
		<path class="st3" d="M604.88,812.93c1.39-2.44,2.42-4.99,3.08-7.67c0.66-2.67,0.99-5.55,0.99-8.64c0-3.09-0.33-5.97-0.99-8.64
			c-0.66-2.67-1.69-5.23-3.08-7.67h3.17c1.35,2.09,2.38,4.53,3.1,7.32c0.72,2.79,1.08,5.78,1.08,8.99c0,3.18-0.36,6.17-1.08,8.96
			c-0.72,2.79-1.75,5.24-3.1,7.35H604.88z"/>
	</g>
	<g>
		<path class="st2" d="M288.67,915.12h-8.91l-1.84,4.19h-2.47l7.6-16.77h2.37l7.62,16.77h-2.52L288.67,915.12z M287.83,913.21
			l-3.62-8.22l-3.62,8.22H287.83z"/>
		<path class="st2" d="M301.99,902.55h7.07c1.77,0,3.35,0.35,4.72,1.06c1.37,0.7,2.44,1.69,3.2,2.96c0.76,1.27,1.14,2.73,1.14,4.37
			c0,1.65-0.38,3.1-1.14,4.37c-0.76,1.27-1.82,2.26-3.2,2.96c-1.37,0.7-2.95,1.06-4.72,1.06h-7.07V902.55z M308.92,917.23
			c1.36,0,2.55-0.26,3.58-0.79c1.03-0.53,1.83-1.27,2.38-2.22c0.56-0.95,0.84-2.05,0.84-3.29c0-1.25-0.28-2.34-0.84-3.3
			c-0.56-0.95-1.35-1.69-2.38-2.22c-1.03-0.53-2.22-0.79-3.58-0.79h-4.53v12.6H308.92z"/>
		<path class="st2" d="M345.52,920.85c-0.54,0.64-1.17,1.12-1.89,1.46s-1.49,0.5-2.32,0.5c-1.05,0-2.04-0.25-2.96-0.76
			c-0.92-0.5-1.97-1.36-3.15-2.58c-1.58-0.08-3.01-0.5-4.28-1.27c-1.27-0.77-2.26-1.78-2.97-3.06c-0.71-1.27-1.07-2.68-1.07-4.23
			c0-1.62,0.39-3.08,1.16-4.38c0.77-1.31,1.84-2.34,3.2-3.08c1.36-0.74,2.88-1.11,4.58-1.11c1.68,0,3.2,0.37,4.55,1.11
			c1.36,0.74,2.42,1.77,3.19,3.07c0.77,1.3,1.15,2.77,1.15,4.4c0,1.37-0.28,2.63-0.83,3.78c-0.55,1.15-1.33,2.12-2.32,2.9
			c-1,0.78-2.14,1.33-3.44,1.63c0.56,0.59,1.1,1.02,1.62,1.28c0.52,0.26,1.05,0.4,1.59,0.4c1.18,0,2.2-0.48,3.07-1.44L345.52,920.85
			z M330.13,914.23c0.57,0.98,1.35,1.75,2.35,2.31c1,0.56,2.11,0.84,3.34,0.84c1.21,0,2.32-0.28,3.31-0.84
			c0.99-0.56,1.77-1.33,2.34-2.31c0.57-0.98,0.85-2.08,0.85-3.29c0-1.21-0.28-2.31-0.85-3.3c-0.57-0.98-1.35-1.75-2.34-2.31
			c-0.99-0.56-2.09-0.84-3.31-0.84c-1.23,0-2.34,0.28-3.34,0.84c-1,0.56-1.78,1.33-2.35,2.31c-0.57,0.98-0.85,2.08-0.85,3.3
			C329.28,912.14,329.56,913.24,330.13,914.23z"/>
		<path class="st2" d="M356.57,917.59c-1.25-1.28-1.87-3.12-1.87-5.51v-9.54h2.4v9.44c0,3.59,1.57,5.39,4.72,5.39
			c1.53,0,2.71-0.44,3.52-1.33c0.81-0.89,1.22-2.24,1.22-4.06v-9.44h2.32v9.54c0,2.41-0.62,4.25-1.87,5.52
			c-1.25,1.27-2.99,1.9-5.22,1.9C359.56,919.51,357.82,918.87,356.57,917.59z"/>
		<path class="st2" d="M380.26,902.55h2.4v16.77h-2.4V902.55z"/>
		<path class="st2" d="M395.39,918.92c-1.17-0.39-2.1-0.9-2.77-1.52l0.89-1.87c0.64,0.58,1.46,1.04,2.46,1.4
			c1,0.36,2.02,0.54,3.08,0.54c1.39,0,2.43-0.24,3.11-0.71c0.69-0.47,1.03-1.1,1.03-1.88c0-0.57-0.19-1.04-0.56-1.4
			c-0.38-0.36-0.84-0.64-1.39-0.83c-0.55-0.19-1.33-0.41-2.34-0.65c-1.26-0.3-2.28-0.61-3.05-0.91s-1.44-0.77-1.99-1.4
			c-0.55-0.63-0.83-1.48-0.83-2.55c0-0.89,0.23-1.7,0.71-2.42c0.47-0.72,1.19-1.29,2.14-1.72c0.96-0.43,2.15-0.65,3.57-0.65
			c0.99,0,1.96,0.13,2.92,0.38c0.96,0.25,1.78,0.62,2.47,1.1l-0.79,1.92c-0.7-0.45-1.45-0.79-2.25-1.02
			c-0.8-0.23-1.58-0.35-2.35-0.35c-1.36,0-2.38,0.25-3.05,0.74c-0.68,0.49-1.02,1.13-1.02,1.92c0,0.58,0.19,1.04,0.57,1.4
			c0.38,0.36,0.86,0.64,1.43,0.84c0.57,0.2,1.34,0.41,2.31,0.64c1.26,0.3,2.28,0.61,3.04,0.91c0.77,0.31,1.43,0.77,1.98,1.39
			c0.55,0.62,0.83,1.46,0.83,2.52c0,0.88-0.24,1.68-0.72,2.41c-0.48,0.73-1.21,1.3-2.18,1.72c-0.98,0.42-2.17,0.64-3.59,0.64
			C397.78,919.51,396.57,919.31,395.39,918.92z"/>
		<path class="st2" d="M415.51,902.55h2.4v16.77h-2.4V902.55z"/>
		<path class="st2" d="M432.36,918.4c-1.35-0.74-2.41-1.77-3.17-3.07c-0.77-1.3-1.15-2.77-1.15-4.4c0-1.63,0.38-3.1,1.15-4.4
			c0.77-1.3,1.83-2.32,3.19-3.07c1.36-0.74,2.87-1.11,4.55-1.11c1.31,0,2.51,0.22,3.59,0.66c1.09,0.44,2.01,1.09,2.78,1.95
			l-1.56,1.51c-1.26-1.32-2.84-1.99-4.72-1.99c-1.25,0-2.37,0.28-3.38,0.84c-1.01,0.56-1.79,1.33-2.36,2.31
			c-0.57,0.98-0.85,2.08-0.85,3.3c0,1.21,0.28,2.31,0.85,3.29c0.57,0.98,1.35,1.75,2.36,2.31c1.01,0.56,2.13,0.84,3.38,0.84
			c1.87,0,3.44-0.67,4.72-2.01l1.56,1.51c-0.77,0.86-1.7,1.52-2.79,1.96c-1.1,0.45-2.3,0.67-3.61,0.67
			C435.23,919.51,433.71,919.14,432.36,918.4z"/>
		<path class="st2" d="M453.2,902.55h2.4v16.77h-2.4V902.55z"/>
		<path class="st2" d="M470.09,918.4c-1.36-0.74-2.42-1.77-3.2-3.08c-0.77-1.31-1.16-2.77-1.16-4.38c0-1.62,0.39-3.08,1.16-4.38
			c0.77-1.31,1.84-2.34,3.2-3.08c1.36-0.74,2.88-1.11,4.58-1.11c1.68,0,3.2,0.37,4.55,1.11c1.36,0.74,2.42,1.77,3.19,3.07
			c0.77,1.3,1.15,2.77,1.15,4.4c0,1.63-0.38,3.09-1.15,4.4c-0.77,1.3-1.83,2.32-3.19,3.07c-1.36,0.74-2.87,1.11-4.55,1.11
			C472.97,919.51,471.44,919.14,470.09,918.4z M477.98,916.54c0.98-0.56,1.76-1.33,2.32-2.31c0.57-0.98,0.85-2.08,0.85-3.29
			c0-1.21-0.28-2.31-0.85-3.3c-0.57-0.98-1.34-1.75-2.32-2.31c-0.98-0.56-2.09-0.84-3.32-0.84c-1.23,0-2.34,0.28-3.34,0.84
			c-1,0.56-1.78,1.33-2.35,2.31c-0.57,0.98-0.85,2.08-0.85,3.3c0,1.21,0.28,2.31,0.85,3.29c0.57,0.98,1.35,1.75,2.35,2.31
			c1,0.56,2.11,0.84,3.34,0.84C475.89,917.38,477,917.1,477.98,916.54z M476.12,898.06h2.92l-4.02,3.12h-2.16L476.12,898.06z"/>
		<path class="st2" d="M508.11,902.55v16.77h-1.96l-10.06-12.51v12.51h-2.4v-16.77h1.96l10.06,12.51v-12.51H508.11z"/>
		<path class="st2" d="M518.67,909.31c-0.32-0.31-0.48-0.71-0.48-1.19c0-0.46,0.16-0.85,0.48-1.16c0.32-0.31,0.7-0.47,1.15-0.47
			s0.82,0.15,1.13,0.46c0.3,0.3,0.46,0.7,0.46,1.17c0,0.48-0.16,0.88-0.47,1.19c-0.31,0.31-0.68,0.47-1.11,0.47
			C519.38,909.78,518.99,909.63,518.67,909.31z M518.67,918.99c-0.32-0.31-0.48-0.71-0.48-1.18c0-0.46,0.16-0.85,0.48-1.16
			c0.32-0.31,0.7-0.47,1.15-0.47s0.82,0.15,1.13,0.46c0.3,0.31,0.46,0.7,0.46,1.18c0,0.48-0.16,0.87-0.47,1.18
			c-0.31,0.31-0.68,0.47-1.11,0.47C519.38,919.46,518.99,919.3,518.67,918.99z"/>
		<path class="st3" d="M294.29,962.03v3.03h-17.53v-2.37l9.93-9.58c1.21-1.16,2.02-2.17,2.44-3.02c0.42-0.85,0.63-1.7,0.63-2.56
			c0-1.28-0.45-2.27-1.34-2.98c-0.89-0.71-2.18-1.06-3.85-1.06c-2.7,0-4.78,0.88-6.24,2.65l-2.37-2.06c0.95-1.16,2.2-2.07,3.75-2.72
			c1.54-0.65,3.27-0.98,5.17-0.98c2.56,0,4.59,0.61,6.1,1.83c1.51,1.22,2.26,2.88,2.26,4.97c0,1.3-0.28,2.53-0.84,3.69
			c-0.56,1.16-1.62,2.49-3.17,3.97l-7.46,7.18H294.29z"/>
		<path class="st3" d="M311.28,963.85c-1.5-0.99-2.68-2.42-3.54-4.3c-0.86-1.88-1.29-4.11-1.29-6.69s0.43-4.81,1.29-6.69
			c0.86-1.88,2.04-3.32,3.54-4.3c1.5-0.99,3.21-1.48,5.14-1.48c1.9,0,3.61,0.49,5.11,1.48c1.5,0.99,2.68,2.42,3.54,4.3
			c0.86,1.88,1.29,4.11,1.29,6.69s-0.43,4.81-1.29,6.69c-0.86,1.88-2.04,3.32-3.54,4.3c-1.5,0.99-3.2,1.48-5.11,1.48
			C314.49,965.34,312.77,964.84,311.28,963.85z M321.1,959.83c1.17-1.6,1.76-3.93,1.76-6.97c0-3.05-0.59-5.37-1.76-6.97
			c-1.17-1.6-2.74-2.4-4.69-2.4c-1.98,0-3.55,0.8-4.72,2.4c-1.17,1.6-1.76,3.93-1.76,6.97c0,3.04,0.59,5.36,1.76,6.97
			c1.17,1.6,2.75,2.4,4.72,2.4C318.37,962.23,319.93,961.43,321.1,959.83z"/>
		<path class="st3" d="M343.93,963.85c-1.5-0.99-2.68-2.42-3.54-4.3c-0.86-1.88-1.29-4.11-1.29-6.69s0.43-4.81,1.29-6.69
			c0.86-1.88,2.04-3.32,3.54-4.3c1.5-0.99,3.21-1.48,5.14-1.48c1.9,0,3.61,0.49,5.11,1.48c1.5,0.99,2.68,2.42,3.54,4.3
			c0.86,1.88,1.29,4.11,1.29,6.69s-0.43,4.81-1.29,6.69c-0.86,1.88-2.04,3.32-3.54,4.3c-1.5,0.99-3.2,1.48-5.11,1.48
			C347.14,965.34,345.43,964.84,343.93,963.85z M353.76,959.83c1.17-1.6,1.76-3.93,1.76-6.97c0-3.05-0.59-5.37-1.76-6.97
			c-1.17-1.6-2.74-2.4-4.69-2.4c-1.98,0-3.55,0.8-4.72,2.4c-1.17,1.6-1.76,3.93-1.76,6.97c0,3.04,0.59,5.36,1.76,6.97
			c1.17,1.6,2.75,2.4,4.72,2.4C351.02,962.23,352.58,961.43,353.76,959.83z"/>
		<path class="st3" d="M386.59,951.15c1.27,0.6,2.26,1.47,2.98,2.59c0.72,1.13,1.08,2.42,1.08,3.89c0,1.53-0.38,2.88-1.13,4.04
			c-0.76,1.16-1.79,2.06-3.1,2.7s-2.78,0.96-4.41,0.96c-3.28,0-5.8-1.06-7.58-3.17c-1.78-2.11-2.67-5.11-2.67-8.99
			c0-2.72,0.48-5.04,1.45-6.95c0.96-1.92,2.31-3.37,4.04-4.36c1.73-0.99,3.75-1.48,6.05-1.48c1.18,0,2.3,0.12,3.35,0.37
			c1.05,0.25,1.95,0.6,2.72,1.06l-1.32,2.72c-1.16-0.77-2.72-1.15-4.67-1.15c-2.53,0-4.52,0.78-5.96,2.35s-2.16,3.85-2.16,6.85
			c0,0.37,0.01,0.66,0.04,0.87c0.7-1.05,1.65-1.84,2.87-2.39s2.6-0.82,4.13-0.82C383.88,950.25,385.32,950.55,386.59,951.15z
			 M385.77,961.22c1-0.86,1.5-2.01,1.5-3.45c0-1.44-0.5-2.58-1.52-3.43c-1.01-0.85-2.36-1.27-4.06-1.27c-1.09,0-2.06,0.21-2.91,0.63
			s-1.51,0.99-1.99,1.71c-0.48,0.72-0.71,1.52-0.71,2.4c0,0.86,0.23,1.65,0.68,2.35c0.45,0.71,1.11,1.28,1.99,1.71
			c0.87,0.43,1.91,0.64,3.12,0.64C383.47,962.51,384.77,962.08,385.77,961.22z"/>
	</g>
	<g>
		<path class="st2" d="M274.86,609.57c-1.17-0.39-2.1-0.9-2.77-1.52l0.89-1.87c0.64,0.58,1.46,1.04,2.46,1.4
			c1,0.36,2.02,0.54,3.08,0.54c1.39,0,2.43-0.24,3.11-0.71c0.69-0.47,1.03-1.1,1.03-1.88c0-0.58-0.19-1.04-0.56-1.4
			s-0.84-0.64-1.39-0.83c-0.55-0.19-1.33-0.41-2.34-0.65c-1.26-0.3-2.28-0.61-3.05-0.91c-0.77-0.3-1.44-0.77-1.99-1.4
			c-0.55-0.63-0.83-1.48-0.83-2.55c0-0.89,0.23-1.7,0.71-2.42c0.47-0.72,1.19-1.29,2.14-1.73c0.96-0.43,2.15-0.65,3.57-0.65
			c0.99,0,1.96,0.13,2.92,0.38c0.96,0.26,1.78,0.62,2.47,1.1l-0.79,1.92c-0.7-0.45-1.45-0.79-2.25-1.02
			c-0.8-0.23-1.58-0.35-2.35-0.35c-1.36,0-2.38,0.25-3.05,0.74c-0.68,0.5-1.02,1.13-1.02,1.92c0,0.58,0.19,1.04,0.57,1.4
			c0.38,0.36,0.86,0.64,1.43,0.84c0.57,0.2,1.34,0.41,2.31,0.64c1.26,0.3,2.28,0.61,3.04,0.91c0.77,0.3,1.43,0.77,1.98,1.39
			c0.55,0.62,0.83,1.46,0.83,2.52c0,0.88-0.24,1.68-0.72,2.41c-0.48,0.73-1.21,1.3-2.18,1.73c-0.98,0.42-2.17,0.64-3.59,0.64
			C277.25,610.15,276.04,609.96,274.86,609.57z"/>
		<path class="st2" d="M307.15,607.88v2.08h-12.17v-16.77h11.84v2.08h-9.44v5.15h8.41v2.04h-8.41v5.41H307.15z"/>
		<path class="st2" d="M317.5,593.19h7.07c1.77,0,3.35,0.35,4.72,1.05c1.37,0.7,2.44,1.69,3.2,2.96c0.76,1.27,1.14,2.73,1.14,4.37
			c0,1.65-0.38,3.1-1.14,4.37c-0.76,1.27-1.82,2.26-3.2,2.96s-2.95,1.05-4.72,1.05h-7.07V593.19z M324.42,607.88
			c1.36,0,2.55-0.26,3.58-0.79c1.03-0.53,1.83-1.27,2.38-2.22c0.56-0.95,0.84-2.05,0.84-3.29c0-1.25-0.28-2.34-0.84-3.29
			c-0.56-0.95-1.35-1.69-2.38-2.22c-1.03-0.53-2.22-0.79-3.58-0.79h-4.53v12.6H324.42z"/>
		<path class="st2" d="M355.93,607.88v2.08h-12.17v-16.77h11.84v2.08h-9.44v5.15h8.41v2.04h-8.41v5.41H355.93z"/>
		<path class="st2" d="M365.18,599.96c-0.32-0.31-0.48-0.71-0.48-1.19c0-0.46,0.16-0.85,0.48-1.16c0.32-0.31,0.7-0.47,1.15-0.47
			c0.45,0,0.82,0.15,1.13,0.46c0.3,0.3,0.46,0.69,0.46,1.17c0,0.48-0.16,0.87-0.47,1.19c-0.31,0.31-0.68,0.47-1.11,0.47
			C365.88,600.43,365.49,600.27,365.18,599.96z M365.18,609.64c-0.32-0.31-0.48-0.71-0.48-1.19c0-0.46,0.16-0.85,0.48-1.16
			c0.32-0.31,0.7-0.47,1.15-0.47c0.45,0,0.82,0.15,1.13,0.45c0.3,0.3,0.46,0.7,0.46,1.17c0,0.48-0.16,0.87-0.47,1.19
			c-0.31,0.31-0.68,0.47-1.11,0.47C365.88,610.11,365.49,609.95,365.18,609.64z"/>
		<path class="st3" d="M291.74,633.57c1.81,1.51,2.72,3.59,2.72,6.24c0,2.65-0.91,4.73-2.72,6.24c-1.81,1.51-4.3,2.27-7.46,2.27
			h-6.03v7.39h-3.48v-24.39h9.51C287.44,631.31,289.93,632.06,291.74,633.57z M289.23,643.87c1.16-0.94,1.74-2.29,1.74-4.06
			c0-1.77-0.58-3.12-1.74-4.06c-1.16-0.94-2.85-1.41-5.05-1.41h-5.93v10.94h5.93C286.39,645.28,288.07,644.81,289.23,643.87z"/>
		<path class="st3" d="M313.7,654.36c-1.98-1.08-3.53-2.57-4.65-4.48c-1.13-1.9-1.69-4.03-1.69-6.38s0.56-4.47,1.69-6.38
			c1.13-1.91,2.68-3.4,4.65-4.48c1.97-1.08,4.19-1.62,6.66-1.62c2.44,0,4.65,0.54,6.62,1.62c1.97,1.08,3.52,2.57,4.63,4.46
			c1.12,1.89,1.67,4.03,1.67,6.4c0,2.37-0.56,4.5-1.67,6.39c-1.11,1.89-2.66,3.38-4.63,4.46c-1.98,1.08-4.18,1.62-6.62,1.62
			C317.89,655.98,315.67,655.44,313.7,654.36z M325.18,651.66c1.43-0.81,2.56-1.93,3.38-3.36c0.83-1.43,1.24-3.03,1.24-4.79
			c0-1.77-0.41-3.36-1.24-4.79c-0.82-1.43-1.95-2.55-3.38-3.36c-1.43-0.81-3.04-1.22-4.83-1.22c-1.79,0-3.41,0.41-4.86,1.22
			c-1.45,0.81-2.59,1.93-3.41,3.36c-0.82,1.43-1.24,3.03-1.24,4.79c0,1.77,0.41,3.36,1.24,4.79c0.82,1.43,1.96,2.55,3.41,3.36
			c1.45,0.81,3.07,1.22,4.86,1.22C322.14,652.88,323.75,652.47,325.18,651.66z"/>
		<path class="st3" d="M364.33,655.7l-5.26-7.49c-0.65,0.05-1.16,0.07-1.53,0.07h-6.03v7.42h-3.48v-24.39h9.51
			c3.16,0,5.65,0.76,7.46,2.27c1.81,1.51,2.72,3.59,2.72,6.24c0,1.88-0.47,3.49-1.39,4.81c-0.93,1.32-2.25,2.29-3.97,2.89l5.79,8.19
			H364.33z M362.49,643.89c1.16-0.95,1.74-2.31,1.74-4.08c0-1.77-0.58-3.12-1.74-4.06c-1.16-0.94-2.85-1.41-5.05-1.41h-5.93v10.98
			h5.93C359.64,645.32,361.33,644.84,362.49,643.89z"/>
		<path class="st3" d="M387.26,634.34h-8.36v-3.03h20.18v3.03h-8.36v21.36h-3.45V634.34z"/>
		<path class="st3" d="M414.34,653.19c-1.81-1.86-2.72-4.53-2.72-8.02v-13.87h3.48v13.73c0,5.23,2.29,7.84,6.87,7.84
			c2.23,0,3.94-0.64,5.12-1.93c1.19-1.29,1.78-3.26,1.78-5.91v-13.73h3.38v13.87c0,3.51-0.91,6.19-2.72,8.03
			c-1.81,1.85-4.34,2.77-7.6,2.77C418.69,655.98,416.15,655.05,414.34,653.19z"/>
		<path class="st3" d="M465.71,643.37h3.35v9.51c-1.21,1-2.61,1.77-4.22,2.3c-1.6,0.53-3.28,0.8-5.02,0.8
			c-2.46,0-4.68-0.54-6.66-1.62c-1.98-1.08-3.53-2.57-4.65-4.46c-1.13-1.89-1.69-4.03-1.69-6.39c0-2.37,0.56-4.51,1.69-6.41
			c1.13-1.91,2.68-3.39,4.67-4.46c1.99-1.07,4.22-1.6,6.71-1.6c1.95,0,3.72,0.32,5.31,0.96c1.59,0.64,2.95,1.57,4.06,2.81
			l-2.16,2.16c-1.95-1.88-4.31-2.82-7.07-2.82c-1.86,0-3.53,0.4-5,1.2c-1.48,0.8-2.63,1.92-3.47,3.35
			c-0.84,1.43-1.26,3.04-1.26,4.83c0,1.77,0.42,3.36,1.26,4.79c0.84,1.43,1.99,2.55,3.47,3.36c1.47,0.81,3.13,1.22,4.97,1.22
			c2.18,0,4.09-0.52,5.72-1.57V643.37z"/>
		<path class="st3" d="M500.66,649.6H487.7l-2.68,6.1h-3.59l11.05-24.39h3.45L507,655.7h-3.66L500.66,649.6z M499.44,646.82
			l-5.26-11.95l-5.26,11.95H499.44z"/>
		<path class="st3" d="M520.04,631.31h3.48v21.36h13.21v3.03h-16.69V631.31z"/>
	</g>
	<g class="st4">
		<path class="st2" d="M54.65,415.77c1.23,1.04,1.85,2.46,1.85,4.28s-0.62,3.23-1.85,4.26c-1.23,1.03-2.93,1.54-5.1,1.54h-4.57v5.37
			h-1.8v-17h6.36C51.72,414.22,53.42,414.74,54.65,415.77z M53.36,423.17c0.89-0.74,1.34-1.77,1.34-3.12c0-1.38-0.45-2.43-1.34-3.17
			c-0.89-0.74-2.18-1.11-3.86-1.11h-4.52v8.5h4.52C51.18,424.27,52.47,423.9,53.36,423.17z"/>
		<path class="st2" d="M79.69,429.67v1.55H67.67v-17h11.66v1.55h-9.86v6.05h8.79v1.53h-8.79v6.32H79.69z"/>
		<path class="st2" d="M94.51,415.77h-5.98v-1.55h13.75v1.55h-5.98v15.45h-1.8V415.77z"/>
		<path class="st2" d="M124.04,431.22l-3.89-5.47c-0.44,0.05-0.89,0.07-1.36,0.07h-4.57v5.39h-1.8v-17h6.36
			c2.17,0,3.87,0.52,5.1,1.55c1.23,1.04,1.85,2.46,1.85,4.28c0,1.33-0.34,2.45-1.01,3.36c-0.67,0.92-1.63,1.58-2.88,1.98l4.15,5.83
			H124.04z M122.61,423.18c0.89-0.75,1.34-1.79,1.34-3.13c0-1.38-0.45-2.43-1.34-3.17c-0.89-0.74-2.18-1.11-3.86-1.11h-4.52v8.53
			h4.52C120.43,424.3,121.72,423.93,122.61,423.18z"/>
		<path class="st2" d="M140.14,430.24c-1.37-0.75-2.44-1.79-3.21-3.1c-0.77-1.31-1.15-2.78-1.15-4.42c0-1.64,0.39-3.11,1.15-4.42
			c0.77-1.31,1.84-2.34,3.21-3.1c1.37-0.75,2.89-1.13,4.58-1.13s3.2,0.37,4.55,1.12c1.35,0.75,2.42,1.78,3.2,3.1
			c0.78,1.32,1.17,2.8,1.17,4.43c0,1.64-0.39,3.11-1.17,4.43c-0.78,1.32-1.84,2.35-3.2,3.1c-1.35,0.75-2.87,1.12-4.55,1.12
			S141.5,430.99,140.14,430.24z M148.36,428.85c1.08-0.61,1.93-1.45,2.55-2.53s0.92-2.28,0.92-3.61c0-1.33-0.31-2.53-0.92-3.61
			c-0.62-1.08-1.47-1.92-2.55-2.53c-1.09-0.61-2.3-0.91-3.64-0.91c-1.34,0-2.56,0.3-3.66,0.91c-1.09,0.61-1.95,1.45-2.57,2.53
			c-0.62,1.08-0.93,2.28-0.93,3.61c0,1.33,0.31,2.53,0.93,3.61c0.62,1.08,1.48,1.92,2.57,2.53c1.09,0.61,2.31,0.91,3.66,0.91
			C146.06,429.76,147.27,429.46,148.36,428.85z"/>
		<path class="st2" d="M164.95,414.22h1.8v15.45h9.52v1.55h-11.32V414.22z"/>
		<path class="st2" d="M198.56,429.67v1.55h-12.02v-17h11.66v1.55h-9.86v6.05h8.79v1.53h-8.79v6.32H198.56z"/>
		<path class="st2" d="M221.69,431.22l-3.89-5.47c-0.44,0.05-0.89,0.07-1.36,0.07h-4.57v5.39h-1.8v-17h6.36
			c2.17,0,3.87,0.52,5.1,1.55c1.23,1.04,1.85,2.46,1.85,4.28c0,1.33-0.34,2.45-1.01,3.36c-0.67,0.92-1.63,1.58-2.88,1.98l4.15,5.83
			H221.69z M220.25,423.18c0.89-0.75,1.34-1.79,1.34-3.13c0-1.38-0.45-2.43-1.34-3.17c-0.89-0.74-2.18-1.11-3.86-1.11h-4.52v8.53
			h4.52C218.08,424.3,219.36,423.93,220.25,423.18z"/>
		<path class="st2" d="M245.59,426.68h-9.47l-2.04,4.54h-1.87l7.77-17h1.77l7.77,17h-1.89L245.59,426.68z M244.93,425.22l-4.08-9.13
			l-4.08,9.13H244.93z"/>
		<path class="st2" d="M279.11,425.34v5.88h-1.77v-5.88l-6.8-11.12h1.92l5.83,9.55l5.83-9.55h1.8L279.11,425.34z"/>
		<path class="st2" d="M321.62,422.72h1.72v6.49c-0.79,0.7-1.73,1.23-2.82,1.6c-1.08,0.37-2.23,0.56-3.42,0.56
			c-1.7,0-3.23-0.37-4.59-1.12c-1.36-0.75-2.43-1.78-3.21-3.1c-0.78-1.32-1.17-2.8-1.17-4.43c0-1.64,0.39-3.11,1.17-4.43
			c0.78-1.32,1.85-2.35,3.21-3.1c1.36-0.75,2.9-1.12,4.61-1.12c1.3,0,2.49,0.21,3.57,0.62c1.09,0.41,2,1.02,2.74,1.83l-1.12,1.14
			c-1.34-1.33-3.05-1.99-5.13-1.99c-1.38,0-2.62,0.3-3.73,0.91c-1.11,0.61-1.98,1.45-2.61,2.53c-0.63,1.08-0.95,2.28-0.95,3.61
			c0,1.33,0.32,2.53,0.95,3.6s1.5,1.91,2.6,2.53c1.1,0.61,2.34,0.92,3.72,0.92c1.75,0,3.23-0.44,4.45-1.31V422.72z"/>
		<path class="st2" d="M346.37,426.68h-9.47l-2.04,4.54h-1.87l7.77-17h1.77l7.77,17h-1.89L346.37,426.68z M345.71,425.22l-4.08-9.13
			l-4.08,9.13H345.71z"/>
		<path class="st2" d="M361.46,430.76c-1.16-0.4-2.05-0.94-2.68-1.6l0.7-1.38c0.62,0.61,1.43,1.11,2.45,1.49
			c1.02,0.38,2.07,0.57,3.16,0.57c1.52,0,2.66-0.28,3.43-0.84c0.76-0.56,1.14-1.28,1.14-2.17c0-0.68-0.21-1.22-0.62-1.63
			c-0.41-0.4-0.92-0.72-1.52-0.93c-0.6-0.22-1.43-0.46-2.5-0.72c-1.28-0.32-2.3-0.63-3.06-0.93c-0.76-0.3-1.41-0.76-1.96-1.37
			c-0.54-0.61-0.81-1.45-0.81-2.5c0-0.86,0.23-1.64,0.68-2.34c0.45-0.7,1.15-1.27,2.09-1.69c0.94-0.42,2.1-0.63,3.5-0.63
			c0.97,0,1.92,0.13,2.85,0.4c0.93,0.27,1.74,0.64,2.42,1.11l-0.61,1.43c-0.71-0.47-1.47-0.82-2.28-1.06
			c-0.81-0.23-1.6-0.35-2.38-0.35c-1.49,0-2.61,0.29-3.36,0.86c-0.75,0.57-1.13,1.32-1.13,2.22c0,0.68,0.21,1.23,0.62,1.64
			c0.41,0.41,0.93,0.73,1.55,0.95c0.62,0.22,1.46,0.46,2.51,0.72c1.25,0.31,2.25,0.61,3.02,0.91c0.77,0.3,1.42,0.75,1.95,1.36
			c0.53,0.61,0.8,1.43,0.8,2.47c0,0.86-0.23,1.64-0.69,2.34c-0.46,0.71-1.17,1.26-2.13,1.68c-0.95,0.41-2.13,0.62-3.52,0.62
			C363.83,431.37,362.62,431.16,361.46,430.76z"/>
		<path class="st2" d="M385.28,409.82h2.31l-3.93,3.01h-1.7L385.28,409.82z M382.63,414.22h1.8v17h-1.8V414.22z"/>
		<path class="st2" d="M398.31,430.76c-1.16-0.4-2.05-0.94-2.68-1.6l0.7-1.38c0.62,0.61,1.43,1.11,2.45,1.49
			c1.02,0.38,2.07,0.57,3.16,0.57c1.52,0,2.66-0.28,3.43-0.84c0.76-0.56,1.14-1.28,1.14-2.17c0-0.68-0.21-1.22-0.62-1.63
			c-0.41-0.4-0.92-0.72-1.52-0.93c-0.6-0.22-1.43-0.46-2.5-0.72c-1.28-0.32-2.3-0.63-3.06-0.93c-0.76-0.3-1.41-0.76-1.96-1.37
			c-0.54-0.61-0.81-1.45-0.81-2.5c0-0.86,0.23-1.64,0.68-2.34c0.45-0.7,1.15-1.27,2.09-1.69c0.94-0.42,2.1-0.63,3.5-0.63
			c0.97,0,1.92,0.13,2.85,0.4c0.93,0.27,1.74,0.64,2.42,1.11l-0.61,1.43c-0.71-0.47-1.47-0.82-2.28-1.06
			c-0.81-0.23-1.6-0.35-2.38-0.35c-1.49,0-2.61,0.29-3.36,0.86c-0.75,0.57-1.13,1.32-1.13,2.22c0,0.68,0.21,1.23,0.62,1.64
			c0.41,0.41,0.93,0.73,1.55,0.95c0.62,0.22,1.46,0.46,2.51,0.72c1.25,0.31,2.25,0.61,3.02,0.91c0.77,0.3,1.42,0.75,1.95,1.36
			c0.53,0.61,0.8,1.43,0.8,2.47c0,0.86-0.23,1.64-0.69,2.34c-0.46,0.71-1.17,1.26-2.13,1.68c-0.95,0.41-2.13,0.62-3.52,0.62
			C400.68,431.37,399.47,431.16,398.31,430.76z"/>
		<path class="st2" d="M422.54,415.77h-5.97v-1.55h13.75v1.55h-5.98v15.45h-1.8V415.77z"/>
		<path class="st2" d="M440.47,414.22h1.8v17h-1.8V414.22z"/>
		<path class="st2" d="M457.92,430.25c-1.35-0.75-2.41-1.78-3.18-3.1s-1.15-2.8-1.15-4.43c0-1.64,0.39-3.11,1.15-4.43
			s1.83-2.35,3.19-3.1c1.36-0.75,2.88-1.12,4.57-1.12c1.26,0,2.43,0.21,3.5,0.63s1.97,1.04,2.72,1.85l-1.14,1.14
			c-1.33-1.35-3-2.02-5.03-2.02c-1.35,0-2.57,0.31-3.67,0.92c-1.1,0.62-1.96,1.46-2.59,2.53s-0.93,2.27-0.93,3.59
			c0,1.33,0.31,2.53,0.93,3.6s1.49,1.91,2.59,2.53c1.1,0.61,2.32,0.92,3.67,0.92c2.04,0,3.72-0.68,5.03-2.04l1.14,1.14
			c-0.75,0.81-1.65,1.43-2.73,1.86c-1.08,0.43-2.25,0.64-3.51,0.64C460.79,431.37,459.27,431,457.92,430.25z"/>
		<path class="st2" d="M490.07,426.68h-9.47l-2.04,4.54h-1.87l7.77-17h1.77l7.77,17h-1.89L490.07,426.68z M489.41,425.22l-4.08-9.13
			l-4.08,9.13H489.41z"/>
	</g>
</g>
</svg>
