<?xml version="1.0" encoding="UTF-8"?>
<svg width="282px" height="554px" viewBox="0 0 282 554" version="1.1" xmlns="http://www.w3.org/2000/svg" xmlns:xlink="http://www.w3.org/1999/xlink">
    <!-- Generator: Sketch 60 (88103) - https://sketch.com -->
    <title>ISABELDOSSANTOS</title>
    <desc>Created with Sketch.</desc>
    <g id="Page-1" stroke="none" stroke-width="1" fill="none" fill-rule="evenodd">
        <g id="luandaleaks-iphone" transform="translate(-1.000000, -76.000000)" fill-rule="nonzero" stroke="#7BA9FF" stroke-width="2">
            <path d="M19,251 L19,78 L4,78 L4,251 L19,251 Z M48.2819149,252 C58.75,252 69,247.036991 69,231.932182 L69,204.959309 C69,198.917386 65.2925532,193.091245 59.6223404,190.717633 L50.8989362,187.049322 C45.4468085,184.675709 43.0478723,182.733662 43.0478723,176.907522 L43.0478723,92.3205919 C43.0478723,90.378545 43.9202128,86.4944513 48.5,86.4944513 C53.0797872,86.4944513 53.9521277,90.594328 53.9521277,92.5363748 L53.9521277,175.828607 L69,175.828607 L69,96.6362515 C69,81.9630086 58.9680851,77 48.2819149,77 C36.9414894,77 28,81.0998767 28,96.8520345 L28,181.007398 C28,186.617756 30.6170213,192.443896 36.5053191,195.033292 L47.8457447,200.212084 C50.462766,201.290999 52.4255319,202.80148 53.2978723,205.175092 C53.9521277,207.117139 53.9521277,209.059186 53.9521277,211.001233 L53.9521277,235.600493 C53.9521277,239.484587 52.2074468,242.505549 48.5,242.505549 C44.7925532,242.505549 43.0478723,239.916153 43.0478723,235.600493 L43.0478723,211.001233 L28,211.001233 L28,232.147965 C28,247.900123 36.9414894,252 48.2819149,252 Z M94.0478723,251 L94.0478723,201.285714 L104.952128,201.285714 L104.952128,251 L120,251 L120,96.6695652 C120,81.9714286 109.968085,77 99.2819149,77 C87.9414894,77 79,81.1068323 79,96.6695652 L79,251 L94.0478723,251 Z M105,191 L94,191 L94,92.8136646 C94,90.8757764 94.88,87 99.5,87 C104.12,87 105,90.8757764 105,92.8136646 L105,191 Z M149.973404,251 C165.893617,251 172,246.470075 172,230.291771 L172,208.936409 C172,203.32793 170.473404,195.993766 163.276596,193.836658 C170.74364,192.148487 171.949498,186.331638 171.998398,181.030873 L172,98.0610973 C172,81.4513716 163.930851,78 149.973404,78 L131,78 L131,251 L149.973404,251 Z M150.62,191 L146,191 L146,88 L150.4,88 C154.8,88 157,91.0041667 157,94.4375 L157,183.91875 C157,187.1375 155.02,191 150.62,191 Z M150.4,241 L146,241 L146,202 L150.62,202 C155.02,202 157,205.703911 157,209.189944 L157,234.463687 C157,238.167598 154.36,241 150.4,241 Z M211,251 L211,240.456468 L197.861538,240.456468 L197.861538,201.50995 L211,201.50995 L211,191.181592 L197.861538,191.181592 L197.861538,88.5435323 L211,88.5435323 L211,78 L183,78 L183,251 L211,251 Z M244,251 L244,240.861596 L232.95,240.861596 L232.95,78 L218,78 L218,251 L244,251 Z M22.9734043,440 C37.5851064,440 45,435.901496 45,419.938903 L45,285.766833 C45,271.745636 36.9308511,267 22.9734043,267 L4,267 L4,440 L22.9734043,440 Z M23.4,429 L19,429 L19,276 L23.4,276 C27.8,276 30,279.012658 30,282.455696 L30,422.544304 C30,426.202532 27.36,429 23.4,429 Z M75.2819149,441 C85.9680851,441 96,436.252774 96,421.147965 L96,285.636252 C96,270.963009 85.9680851,266 75.2819149,266 C63.9414894,266 55,270.099877 55,285.852035 L55,421.147965 C55,436.900123 63.9414894,441 75.2819149,441 Z M75.28,431 C70.44,431 70,426.46888 70,425.174274 L70,280.825726 C70,278.883817 70.88,275 75.5,275 C80.12,275 81,278.883817 81,280.825726 L81,425.174274 C81,427.547718 79.46,431 75.28,431 Z M126.281915,441 C136.75,441 147,436.036991 147,420.932182 L147,393.959309 C147,387.917386 143.292553,382.091245 137.62234,379.717633 L128.898936,376.049322 C123.446809,373.675709 121.047872,371.733662 121.047872,365.907522 L121.047872,281.320592 C121.047872,279.378545 121.920213,275.494451 126.5,275.494451 C131.079787,275.494451 131.952128,279.594328 131.952128,281.536375 L131.952128,364.828607 L147,364.828607 L147,285.636252 C147,270.963009 136.968085,266 126.281915,266 C114.941489,266 106,270.099877 106,285.852035 L106,370.007398 C106,375.617756 108.617021,381.443896 114.505319,384.033292 L125.845745,389.212084 C128.462766,390.290999 130.425532,391.80148 131.297872,394.175092 C131.952128,396.117139 131.952128,398.059186 131.952128,400.001233 L131.952128,424.600493 C131.952128,428.484587 130.207447,431.505549 126.5,431.505549 C122.792553,431.505549 121.047872,428.916153 121.047872,424.600493 L121.047872,400.001233 L106,400.001233 L106,421.147965 C106,436.900123 114.941489,441 126.281915,441 Z M22.2819149,629 C32.75,629 43,624.036991 43,608.932182 L43,581.959309 C43,575.917386 39.2925532,570.091245 33.6223404,567.717633 L24.8989362,564.049322 C19.4468085,561.675709 17.0478723,559.733662 17.0478723,553.907522 L17.0478723,469.320592 C17.0478723,467.378545 17.9202128,463.494451 22.5,463.494451 C27.0797872,463.494451 27.9521277,467.594328 27.9521277,469.536375 L27.9521277,552.828607 L43,552.828607 L43,473.636252 C43,458.963009 32.9680851,454 22.2819149,454 C10.9414894,454 2,458.099877 2,473.852035 L2,558.007398 C2,563.617756 4.61702128,569.443896 10.5053191,572.033292 L21.8457447,577.212084 C24.462766,578.290999 26.4255319,579.80148 27.2978723,582.175092 C27.9521277,584.117139 27.9521277,586.059186 27.9521277,588.001233 L27.9521277,612.600493 C27.9521277,616.484587 26.2074468,619.505549 22.5,619.505549 C18.7925532,619.505549 17.0478723,616.916153 17.0478723,612.600493 L17.0478723,588.001233 L2,588.001233 L2,609.147965 C2,624.900123 10.9414894,629 22.2819149,629 Z M68.0478723,628 L68.0478723,578.285714 L78.9521277,578.285714 L78.9521277,628 L94,628 L94,473.669565 C94,458.971429 83.9680851,454 73.2819149,454 C61.9414894,454 53,458.106832 53,473.669565 L53,628 L68.0478723,628 Z M79,568 L68,568 L68,469.813665 C68,467.875776 68.88,464 73.5,464 C78.12,464 79,467.875776 79,469.813665 L79,568 Z M119.047872,629 L119.047872,471.887931 C119.047872,468.439655 119.484043,465.206897 124.5,465.206897 C129.372644,465.206897 129.923465,468.257565 129.950963,471.592963 L129.952128,629 L145,629 L145,470.37931 C145,459.172414 139.765957,454 131.696809,454 C121.010638,454 118.829787,460.681034 118.829787,460.681034 L119.047872,454.862069 L104,454.862069 L104,629 L119.047872,629 Z M175.409396,628 L175.409396,465.569825 L184,465.569825 L184,455 L152,455 L152,465.569825 L160.590604,465.569825 L160.590604,628 L175.409396,628 Z M210.281915,629 C220.968085,629 231,624.252774 231,609.147965 L231,473.636252 C231,458.963009 220.968085,454 210.281915,454 C198.941489,454 190,458.099877 190,473.852035 L190,609.147965 C190,624.900123 198.941489,629 210.281915,629 Z M210.28,620 C205.44,620 205,615.46888 205,614.174274 L205,469.825726 C205,467.883817 205.88,464 210.5,464 C215.12,464 216,467.883817 216,469.825726 L216,614.174274 C216,616.547718 214.46,620 210.28,620 Z M261.281915,629 C271.75,629 282,624.036991 282,608.932182 L282,581.959309 C282,575.917386 278.292553,570.091245 272.62234,567.717633 L263.898936,564.049322 C258.446809,561.675709 256.047872,559.733662 256.047872,553.907522 L256.047872,469.320592 C256.047872,467.378545 256.920213,463.494451 261.5,463.494451 C266.079787,463.494451 266.952128,467.594328 266.952128,469.536375 L266.952128,552.828607 L282,552.828607 L282,473.636252 C282,458.963009 271.968085,454 261.281915,454 C249.941489,454 241,458.099877 241,473.852035 L241,558.007398 C241,563.617756 243.617021,569.443896 249.505319,572.033292 L260.845745,577.212084 C263.462766,578.290999 265.425532,579.80148 266.297872,582.175092 C266.879433,583.901356 266.94405,585.62762 266.95123,587.353884 L266.952128,612.600493 C266.952128,616.484587 265.207447,619.505549 261.5,619.505549 C257.792553,619.505549 256.047872,616.916153 256.047872,612.600493 L256.047872,588.001233 L241,588.001233 L241,609.147965 C241,624.900123 249.941489,629 261.281915,629 Z" id="ISABELDOSSANTOS"></path>
        </g>
    </g>
</svg>